<svg xmlns="http://www.w3.org/2000/svg" xmlns:xlink="http://www.w3.org/1999/xlink" width="1500" height="300" viewBox="0 0 1500 300">
  <defs>
    <filter id="Rectangle_14" x="-30" y="-25" width="1560" height="360" filterUnits="userSpaceOnUse">
      <feOffset dy="5" input="SourceAlpha"/>
      <feGaussianBlur stdDeviation="10" result="blur"/>
      <feFlood flood-opacity="0.22"/>
      <feComposite operator="in" in2="blur"/>
      <feComposite in="SourceGraphic"/>
    </filter>
    <clipPath id="clip-path">
      <g transform="matrix(1, 0, 0, 1, 0, 0)" filter="url(#Rectangle_14)">
        <rect id="Rectangle_14-2" data-name="Rectangle 14" width="1500" height="300" rx="74" transform="translate(210 1028)" fill="#fbb01c"/>
      </g>
    </clipPath>
  </defs>
  <g id="Tengah" transform="translate(-210 -1028)">
    <g id="Mask_Group_4" data-name="Mask Group 4" clip-path="url(#clip-path)">
      <g id="Artboard_1" data-name="Artboard 1" transform="translate(209.824 950.824)">
        <g id="_cc8f17ff" data-name="#cc8f17ff">
          <path id="Path_49" data-name="Path 49" d="M0,0H150.818c-.045,25.161.09,50.333-.068,75.494C133.4,74.4,116.28,68.154,103.063,56.727A78.085,78.085,0,0,1,78.488,18.451c-1.1-4.447-1.981-8.939-3.2-13.34C73.118,18.5,68.818,31.769,60.645,42.768A78.06,78.06,0,0,1,13.836,73.523C9.254,74.48,4.582,74.908,0,75.843Z" fill="#cc8f17"/>
          <path id="Path_50" data-name="Path 50" d="M220.637,0h4.83c0,25.116.248,50.231-.124,75.347-.529,17.641.023,35.3-.293,52.956a48.819,48.819,0,0,0,1.193,10.987c-.2,3.861-.585,7.711-.968,11.573-2.06-.011-4.109-.034-6.158-.1a76.594,76.594,0,0,1-43.128-18.091,75.2,75.2,0,0,1-25.892-52c-1.126-27.514,13.712-54.937,37.33-69.077C197.458,5.224,209.053,2.049,220.637,0Z" transform="translate(151.742)" fill="#cc8f17"/>
          <path id="Path_51" data-name="Path 51" d="M300.174,0h75.707V5.043c-1.61,7.9-3.276,15.884-6.574,23.292a78.125,78.125,0,0,1-40.617,40.539c-7.351,3.253-15.243,4.976-23.1,6.507-1.722.056-3.445.09-5.156.135-.011,24.485-.09,48.982.022,73.467.191.27.574.833.765,1.1,1.2,1.1,2.916.709,4.413.912,18.913,2.668,37.24,11.28,50.006,25.724,11.4,12.3,17.719,28.437,20.241,44.85v85.186c-1.644,7.88-3.287,15.851-6.552,23.247a78.362,78.362,0,0,1-39.773,40.212c-7.588,3.5-15.817,5.246-23.967,6.867-1.711.045-3.434.056-5.133.1q-.017-37.741,0-75.471c-2.116-.034-4.222-.056-6.315-.113-20.568-1.756-40.325-12.113-53-28.459a75.956,75.956,0,0,1-16.053-41.552c-.079-1.767-.124-3.546-.113-5.314H300.4c-.5,13.881-.1,27.773-.214,41.664.169,9.13-.5,18.294.507,27.39,1.722-7.711,3.3-15.524,6.676-22.718a78.189,78.189,0,0,1,43.319-41.034c6.338-2.567,13.093-3.771,19.791-4.987-23.348-.72-46.719-.124-70.079-.315.248-22.9-.056-45.8.158-68.694-.113-2.094.405-4.357-.518-6.316-3.647-.912-7.464.529-11.19.473a73.884,73.884,0,0,0-9.817-.934c-17.99.1-35.968.023-53.958.045.011-25.195-.034-50.389.022-75.584,25-.349,50.018.034,75.032-.2C300.241,50.04,300.117,25.026,300.174,0Z" transform="translate(227.527)" fill="#cc8f17"/>
          <path id="Path_52" data-name="Path 52" d="M75.066,37.548c25.195-.056,50.378-.011,75.572-.023-.1,25.071-.011,50.13-.045,75.2-3.873.428-7.757.833-11.64,1.069a79.245,79.245,0,0,0-9.783-.934q-27.086.1-54.194.011C74.841,87.768,74.706,62.653,75.066,37.548Z" transform="translate(75.685 37.945)" fill="#cc8f17"/>
          <path id="Path_53" data-name="Path 53" d="M37.523,75c25.442,1.058,50.063,14.984,63.392,36.79,6.608,10.076,9.783,21.84,12.068,33.548-.011,1.711-.034,3.422-.056,5.133-25.138-.113-50.288,0-75.426-.056C37.568,125.276,37.523,100.138,37.523,75Z" transform="translate(37.926 75.852)" fill="#cc8f17"/>
          <path id="Path_54" data-name="Path 54" d="M124.5,111.8c13.4-21.783,37.983-35.81,63.482-36.767,1.7-.056,3.411-.068,5.122-.023,7.847,1.644,15.794,3.287,23.146,6.586A78.035,78.035,0,0,1,257.8,124.57c2.713,6.541,4.03,13.532,5.257,20.466.923-20.4-.338-40.843.709-61.23,2.769,21.761,15,42.171,33.469,54.138,9.49,6.631,20.748,9.839,31.927,12.248-8,.946-16.053.45-24.091.54-32.681.169-65.362-.585-98.043-.259-2.51.146-4.976.552-7.464.844-3.873-.27-7.734-.709-11.618-.856-25.149-.023-50.31-.079-75.46.034.023-2.083.034-4.165.09-6.237C115.05,132.979,118.044,121.553,124.5,111.8Z" transform="translate(113.761 75.838)" fill="#cc8f17"/>
          <path id="Path_55" data-name="Path 55" d="M188.048,143.718c.124-8.815-.462-17.663.574-26.433,2.173,10.38,5.055,20.793,10.852,29.8,13.307,22.087,38.512,36.159,64.292,36.024,25.206-.022,50.412.158,75.617-.1,12.71-.439,25.42-.124,38.141-.214,9.164.146,18.361-.507,27.5.563-10.4,2.2-20.827,5.088-29.855,10.875C353.141,207.5,339.058,232.676,339.2,258.4c25.059.27,50.119.011,75.178.124a91.091,91.091,0,0,1,1.069,11.2,62.177,62.177,0,0,0-.946,9.017c.169,18.406-.011,36.812.1,55.207,13.881.068,27.761.022,41.642.022,7.531-.124,15.13.6,22.594-.844,3.749.1,7.475.507,11.2.934-.022,25.127.056,50.254-.045,75.381-25.149.113-50.31.034-75.471.034.034.743.09,2.207.124,2.95-.124,24.114-.034,48.239-.056,72.364H263.834c.529-34.9-.034-69.808-.068-104.718-.18-13.565.417-27.165-.383-40.719-2.353,19.431-11.719,38.017-26.647,50.794-11.978,10.537-27.266,16.83-43.027,18.845,20.4,1.036,40.843-.27,61.241.721-16.38,2.387-32.231,9.411-43.984,21.243-14.444,13.948-22.538,33.818-22.707,53.834H112.746c-.281-25-.056-50.006-.113-75.009q-3.056-.236-6.113-.439c-20.793-1.959-40.786-12.462-53.429-29.191-7.8-9.929-12.631-21.9-14.916-34.268-.293-3.906-.529-7.813-.664-11.719,21.75.158,43.5-.079,65.249.1,3.276-.056,6.687.417,9.85-.608a34.493,34.493,0,0,0,.5-5.989,75.177,75.177,0,0,1,29.022-53.552,77.04,77.04,0,0,1,39.908-15.547c2.128-.068,4.255-.09,6.383-.079.056,25.093.135,50.2-.045,75.291-22.909-.27-45.818.068-68.728-.18-2.026.158-4.312-.236-6.068,1.013-1.238,1.385-.687,3.31-.642,4.987,1.689,16.166,7.858,32.017,18.823,44.164,13.993,16.211,35.18,25.521,56.524,25.667.146-25.217-.034-50.434.09-75.651,50.277-.079,100.553.326,150.829.158q.068-37.724,0-75.437-37.707-.067-75.4.011c-1.722,0-3.422,0-5.133-.034-7.869-1.587-15.806-3.253-23.179-6.518a78.354,78.354,0,0,1-40.617-40.64c-3.276-7.374-4.886-15.322-6.552-23.179-.034-1.711-.068-3.434-.1-5.133-.326-13.093-.113-26.2-.169-39.289M339.091,337.079c-1.542,13.3-5.6,26.455-13.228,37.555A77.811,77.811,0,0,1,276.173,407.7c-2.06.484-4.233.811-6.045,1.981-.214,0-.642.011-.856.023,35.889,1.351,67.715,32.6,69.448,68.514.912-22.932.169-45.886.428-68.829,23.337-.281,46.7.461,70.011-.383-12.485-1.745-24.778-5.786-35.225-12.98a78.306,78.306,0,0,1-33.019-49A98.945,98.945,0,0,0,339.091,337.079Z" transform="translate(37.937 118.618)" fill="#cc8f17"/>
          <path id="Path_56" data-name="Path 56" d="M0,149.944c25.161.023,50.333-.056,75.494.034q.456,23.692-.1,47.395c.338,9.423.169,18.856.068,28.279-3.9-.326-7.779-.7-11.674-.957A75.188,75.188,0,0,1,14.2,194.389,76.3,76.3,0,0,1,0,155.235Z" transform="translate(0 151.636)" fill="#cc8f17"/>
          <path id="Path_57" data-name="Path 57" d="M265.6,225.109c1.756-.169,3.512-.36,5.28-.529a88.485,88.485,0,0,0,9.907.889c18-.1,36.013-.023,54.014-.045v67.017c-1.7-7.565-3.344-15.22-6.552-22.313-9.006-20.32-27.4-36.373-48.982-41.957Q272.457,226.483,265.6,225.109Z" transform="translate(268.612 227.131)" fill="#cc8f17"/>
        </g>
        <g id="_7f590eff" data-name="#7f590eff">
          <path id="Path_58" data-name="Path 58" d="M75.017,0h75.55c-.011,25.161.068,50.31-.045,75.471-25.195.011-50.378-.034-75.572.023C75.107,50.333,74.972,25.161,75.017,0Z" transform="translate(75.801)" fill="#7f590e"/>
          <path id="Path_59" data-name="Path 59" d="M187.635,0h2.792c18.8,1.655,37.116,9.772,50.22,23.472,13.025,12.946,20.6,30.711,22.358,48.881.011.732.034,2.184.045,2.916-.056,25.195-.011,50.389-.022,75.584q-37.792,0-75.584.011c.383-3.861.766-7.711.968-11.573a75.749,75.749,0,0,1,29.709-49.038,72.957,72.957,0,0,1,38.67-14.387c-23.078-1.126-46.19-.248-69.279-.518C187.883,50.231,187.635,25.116,187.635,0Z" transform="translate(189.573)" fill="#7f590e"/>
          <path id="Path_60" data-name="Path 60" d="M262.508,37.613c1.711-.045,3.433-.079,5.156-.135,23.427.1,46.865.023,70.293.045v75.426c-23.416.09-46.843-.191-70.247.146-1.5-.2-3.208.191-4.413-.912-.191-.27-.574-.833-.765-1.1C262.417,86.595,262.5,62.1,262.508,37.613Z" transform="translate(265.452 37.903)" fill="#7f590e"/>
          <path id="Path_61" data-name="Path 61" d="M0,74.968c25.15.068,50.3-.146,75.449.09,0,25.138.045,50.276-.023,75.415-22.752.191-45.537-.45-68.277.315,16.143,2.691,31.837,9.423,43.668,20.928,14.308,13.183,22.9,31.915,24.575,51.222.023.721.079,2.161.1,2.882-25.161-.09-50.333-.011-75.494-.034Z" transform="translate(0 75.794)" fill="#7f590e"/>
          <path id="Path_62" data-name="Path 62" d="M138.786,75.98c3.884-.236,7.768-.642,11.64-1.069.034,23.134-.068,46.28.056,69.426-.056,2.071-.068,4.154-.09,6.237q-37.691.084-75.392-.011c.023-1.711.045-3.422.056-5.133a77.383,77.383,0,0,1,13.791-38.422A75.582,75.582,0,0,1,138.786,75.98Z" transform="translate(75.852 75.761)" fill="#7f590e"/>
          <path id="Path_63" data-name="Path 63" d="M288.848,75.832c3.726.056,7.543-1.385,11.19-.473.923,1.959.405,4.222.518,6.316-.214,22.9.09,45.8-.158,68.694H224.972a75.66,75.66,0,0,1,63.876-74.537Z" transform="translate(227.528 75.909)" fill="#7f590e"/>
          <path id="Path_64" data-name="Path 64" d="M150,112.511c3.884.146,7.745.585,11.618.856a75.727,75.727,0,0,1,47.057,27.187c10.9,13.239,16.5,30.249,16.943,47.282-25.206.259-50.412.079-75.617.1Z" transform="translate(151.704 113.789)" fill="#7f590e"/>
          <path id="Path_65" data-name="Path 65" d="M74.976,149.972q37.691-.051,75.381,0c.034,1.7.068,3.422.1,5.133-1.677,20.939-11.967,41.214-28.662,54.115-11.8,9.5-26.545,14.826-41.552,16.233-1.734.068-3.467.124-5.2.191C74.864,200.417,74.988,175.2,74.976,149.972Z" transform="translate(75.797 151.654)" fill="#7f590e"/>
          <path id="Path_66" data-name="Path 66" d="M63.786,187.1c3.9.259,7.779.63,11.674.957q-.084,37.741-.011,75.494c.135,3.906.372,7.813.664,11.719l-.405-1.689c-.158-.766-.484-2.308-.642-3.073a75.412,75.412,0,0,1-30.9,53.924A76.642,76.642,0,0,1,0,338.844V187.767c18.012.022,36.024-.056,54.025.056C57.29,187.812,60.532,187.407,63.786,187.1Z" transform="translate(0 189.228)" fill="#7f590e"/>
          <path id="Path_67" data-name="Path 67" d="M112.562,187.5l2.916.045c19.318,1.689,38.051,10.3,51.233,24.62,11.528,11.832,18.181,27.559,20.928,43.691.687-22.763.09-45.56.3-68.334q37.707-.118,75.4-.011.084,37.707,0,75.437c-50.276.169-100.553-.236-150.829-.158C112.7,237.7,112.618,212.6,112.562,187.5Z" transform="translate(113.795 189.604)" fill="#7f590e"/>
          <path id="Path_68" data-name="Path 68" d="M262.5,187.579c1.7-.045,3.422-.056,5.133-.1,23.427.1,46.865.023,70.293.045v5.055c-1.43,16.132-7.6,31.893-18.271,44.152a76.07,76.07,0,0,1-45.65,25.375c-1.767.169-3.524.36-5.28.529-2.083.124-4.154.281-6.225.439Z" transform="translate(265.482 189.607)" fill="#7f590e"/>
          <path id="Path_69" data-name="Path 69" d="M224.944,202.092a62.178,62.178,0,0,1,.946-9.017c3.76,32.14,31.262,59.6,63.392,63.4-7.464,1.441-15.063.72-22.594.844-13.881,0-27.761.045-41.642-.023C224.933,238.9,225.113,220.5,224.944,202.092Z" transform="translate(227.499 195.268)" fill="#7f590e"/>
          <path id="Path_70" data-name="Path 70" d="M224.955,262.573c25.161,0,50.322.079,75.471-.034q-.118,37.674-.011,75.347h-2.837c-18.53-1.655-36.6-9.546-49.646-22.92-13.329-13-21.2-30.992-22.853-49.443C225.045,264.779,224.989,263.316,224.955,262.573Z" transform="translate(227.511 265.522)" fill="#7f590e"/>
        </g>
        <g id="_f4ab1bff" data-name="#f4ab1bff">
          <path id="Path_71" data-name="Path 71" d="M112.594,0H258.6c-11.584,2.049-23.179,5.224-33.21,11.6-23.618,14.14-38.456,41.563-37.33,69.077-.18,23.4-.045,46.8-.1,70.2-25.5.957-50.085,14.984-63.482,36.767-6.451,9.749-9.445,21.176-11.922,32.456-.124-23.146-.023-46.291-.056-69.426.034-25.071-.056-50.13.045-75.2C112.661,50.31,112.582,25.161,112.594,0Z" transform="translate(113.774)" fill="#f4ab1b"/>
          <path id="Path_72" data-name="Path 72" d="M225.056,0h75.077c-.056,25.026.068,50.04-.045,75.066-25.014.236-50.029-.146-75.032.2-.011-.732-.034-2.184-.045-2.916C225.09,48.239,225.034,24.114,225.056,0Z" transform="translate(227.567)" fill="#f4ab1b"/>
          <path id="Path_73" data-name="Path 73" d="M75.291,2.541c1.216,4.4,2.094,8.894,3.2,13.34a78.085,78.085,0,0,0,24.575,38.276C116.28,65.584,133.4,71.832,150.751,72.924c-.36,25.1-.225,50.22-.09,75.325q27.1.1,54.194-.011a79.242,79.242,0,0,1,9.783.934A75.582,75.582,0,0,0,164.7,180.2a77.383,77.383,0,0,0-13.791,38.422c-2.285-11.708-5.46-23.472-12.068-33.548-13.329-21.806-37.949-35.732-63.392-36.79-25.149-.236-50.3-.023-75.449-.09V73.273c4.582-.934,9.254-1.362,13.836-2.319A78.06,78.06,0,0,0,60.645,40.2C68.818,29.2,73.118,15.926,75.291,2.541Z" transform="translate(0 2.57)" fill="#f4ab1b"/>
          <path id="Path_74" data-name="Path 74" d="M328.77,25.8c3.3-7.408,4.965-15.389,6.574-23.292V72.89c-23.427-.023-46.865.056-70.293-.045,7.858-1.531,15.749-3.253,23.1-6.507A78.125,78.125,0,0,0,328.77,25.8Z" transform="translate(268.063 2.536)" fill="#f4ab1b"/>
          <path id="Path_75" data-name="Path 75" d="M187.634,37.5c23.089.27,46.2-.608,69.279.518A72.957,72.957,0,0,0,218.243,52.4a75.749,75.749,0,0,0-29.709,49.038,48.818,48.818,0,0,1-1.193-10.987C187.657,72.8,187.1,55.139,187.634,37.5Z" transform="translate(189.451 37.849)" fill="#f4ab1b"/>
          <path id="Path_76" data-name="Path 76" d="M152.563,75.045c21.333-.1,42.666,0,64-.09,2.049.068,4.1.09,6.158.1q37.792-.034,75.584-.011c17.99-.023,35.968.056,53.958-.045a73.883,73.883,0,0,1,9.817.934A75.66,75.66,0,0,0,298.2,150.471c-.011,1.767.034,3.546.113,5.314-.18,23.36-.113,46.708-.113,70.056,23.056,0,46.111.056,69.167-.045,2.094.056,4.2.079,6.316.113q.017,37.724,0,75.471v75.494c-3.726-.428-7.453-.833-11.2-.934-32.129-3.805-59.632-31.262-63.392-63.4a91.091,91.091,0,0,0-1.069-11.2c-25.059-.113-50.119.146-75.178-.124-.146-25.724,13.937-50.9,35.968-64.168,9.029-5.786,19.453-8.68,29.855-10.875-9.141-1.069-18.339-.417-27.5-.563-12.721.09-25.431-.225-38.141.214-.439-17.033-6.045-34.043-16.943-47.282a75.727,75.727,0,0,0-47.057-27.187c2.488-.293,4.953-.7,7.464-.844,32.681-.326,65.362.428,98.043.259,8.038-.09,16.087.405,24.091-.54-11.179-2.409-22.436-5.618-31.927-12.248C238.223,126.008,226,105.6,223.227,83.837c-1.047,20.388.214,40.831-.709,61.23-1.227-6.935-2.544-13.926-5.257-20.466a78.035,78.035,0,0,0-41.552-42.97C168.358,78.332,160.41,76.689,152.563,75.045Z" transform="translate(154.297 75.807)" fill="#f4ab1b"/>
          <path id="Path_77" data-name="Path 77" d="M265.075,75.159c23.4-.338,46.832-.056,70.247-.146v70.72c-2.522-16.414-8.837-32.546-20.241-44.85C302.315,86.439,283.987,77.827,265.075,75.159Z" transform="translate(268.086 75.839)" fill="#f4ab1b"/>
          <path id="Path_78" data-name="Path 78" d="M37.517,112.495c25.138.056,50.288-.056,75.426.056q37.69.135,75.392.011c25.149-.113,50.31-.056,75.46-.034v75.426c-25.78.135-50.986-13.937-64.292-36.024-5.8-9.006-8.68-19.419-10.852-29.8-1.036,8.77-.45,17.618-.574,26.433.056,13.093-.158,26.2.169,39.289q-37.69-.034-75.381,0c.011,25.228-.113,50.445.068,75.674.225,23-.169,46,.2,68.987a34.494,34.494,0,0,1-.5,5.989c-3.163,1.024-6.574.552-9.85.608-21.75-.18-43.5.056-65.249-.1q-.051-37.741.011-75.494c.1-9.423.27-18.857-.068-28.279q.557-23.692.1-47.395c-.023-.721-.079-2.161-.1-2.882C37.551,160.8,37.506,136.642,37.517,112.495Z" transform="translate(37.909 113.772)" fill="#f4ab1b"/>
          <path id="Path_79" data-name="Path 79" d="M262.611,112.526c23.36.191,46.73-.405,70.079.315-6.7,1.216-13.453,2.42-19.791,4.987a78.189,78.189,0,0,0-43.319,41.034c-3.377,7.194-4.953,15.006-6.676,22.718-1-9.1-.338-18.26-.507-27.39C262.509,140.3,262.115,126.407,262.611,112.526Z" transform="translate(265.315 113.752)" fill="#f4ab1b"/>
          <path id="Path_80" data-name="Path 80" d="M147.794,152.513c1.666,7.858,3.276,15.806,6.552,23.179a78.354,78.354,0,0,0,40.617,40.64c7.374,3.265,15.31,4.931,23.179,6.518-22.448.079-44.884-.011-67.332.056l-2.916-.045c-2.128-.011-4.255.011-6.383.079-21.311-.022-42.621.034-63.932-.079,15.006-1.407,29.754-6.732,41.552-16.233C135.827,193.727,146.117,173.452,147.794,152.513Z" transform="translate(78.462 154.246)" fill="#f4ab1b"/>
          <path id="Path_81" data-name="Path 81" d="M328.793,175.76c3.265-7.4,4.908-15.367,6.552-23.247v70.371c-23.427-.023-46.865.056-70.293-.045,8.15-1.621,16.38-3.366,23.967-6.867A78.361,78.361,0,0,0,328.793,175.76Z" transform="translate(268.063 154.246)" fill="#f4ab1b"/>
          <path id="Path_82" data-name="Path 82" d="M313.87,234.165c10.672-12.26,16.841-28.02,18.271-44.152v70.371c-18,.022-36.013-.056-54.014.045a88.484,88.484,0,0,1-9.907-.889A76.07,76.07,0,0,0,313.87,234.165Z" transform="translate(271.267 192.172)" fill="#f4ab1b"/>
          <path id="Path_83" data-name="Path 83" d="M75.734,225.845c1.756-1.25,4.041-.856,6.068-1.013,22.909.248,45.818-.09,68.728.18-.124,25.217.056,50.434-.09,75.651-21.344-.146-42.531-9.456-56.524-25.667-10.965-12.147-17.134-28-18.823-44.164C75.047,229.155,74.5,227.23,75.734,225.845Z" transform="translate(75.782 227.386)" fill="#f4ab1b"/>
          <path id="Path_84" data-name="Path 84" d="M262.549,225.282c2.071-.158,4.143-.315,6.225-.439q6.856,1.385,13.667,3.062c21.581,5.584,39.976,21.637,48.982,41.957,3.208,7.092,4.852,14.748,6.552,22.313V376.01H262.493q-.067-37.674.011-75.347C262.605,275.536,262.526,250.409,262.549,225.282Z" transform="translate(265.433 227.397)" fill="#f4ab1b"/>
          <path id="Path_85" data-name="Path 85" d="M222.126,226.562a98.945,98.945,0,0,1,1.824,9.94,78.306,78.306,0,0,0,33.019,49c10.447,7.194,22.74,11.235,35.225,12.98-23.315.844-46.674.1-70.011.383-23.011.191-46.021-.3-69.02.293,1.813-1.171,3.985-1.5,6.045-1.981A77.812,77.812,0,0,0,208.9,264.117C216.531,253.017,220.584,239.857,222.126,226.562Z" transform="translate(154.902 229.135)" fill="#f4ab1b"/>
          <path id="Path_86" data-name="Path 86" d="M187.583,227.692c.8,13.554.2,27.153.383,40.719.034,34.91.6,69.82.068,104.718H112.461c.169-20.016,8.263-39.886,22.707-53.834,11.753-11.832,27.6-18.856,43.984-21.243-20.4-.991-40.843.315-61.241-.721,15.761-2.015,31.049-8.308,43.027-18.845C175.864,265.709,185.23,247.123,187.583,227.692Z" transform="translate(113.738 230.279)" fill="#f4ab1b"/>
          <path id="Path_87" data-name="Path 87" d="M44.164,282.495a75.413,75.413,0,0,0,30.9-53.924c.158.765.484,2.308.642,3.073-.518,21.738-.1,43.488-.225,65.227,22.988,0,45.987.056,68.975-.079q3.056.2,6.113.439c.056,25-.169,50.006.113,75.009H0V296.9A76.642,76.642,0,0,0,44.164,282.495Z" transform="translate(0 231.167)" fill="#f4ab1b"/>
        </g>
        <g id="_432f07ff" data-name="#432f07ff">
          <path id="Path_88" data-name="Path 88" d="M188.927,0H261.55c-.023,24.114.034,48.239-.045,72.353-1.756-18.17-9.333-35.934-22.358-48.881C226.044,9.772,207.727,1.655,188.927,0Z" transform="translate(191.073)" fill="#432f07"/>
          <path id="Path_89" data-name="Path 89" d="M150.118,40.108a75.2,75.2,0,0,0,25.892,52A76.594,76.594,0,0,0,219.139,110.2c-21.333.09-42.666-.011-64,.09-1.711-.045-3.422-.034-5.122.023C150.073,86.906,149.938,63.513,150.118,40.108Z" transform="translate(151.721 40.564)" fill="#432f07"/>
          <path id="Path_90" data-name="Path 90" d="M3.554,112.845c22.74-.766,45.526-.124,68.277-.315-.011,24.148.034,48.306-.034,72.465-1.677-19.307-10.267-38.039-24.575-51.222C35.391,122.268,19.7,115.536,3.554,112.845Z" transform="translate(3.594 113.736)" fill="#432f07"/>
          <path id="Path_91" data-name="Path 91" d="M225.091,115.142a75.956,75.956,0,0,0,16.053,41.552c12.676,16.346,32.433,26.7,53,28.459-23.056.1-46.111.045-69.167.045C224.978,161.85,224.911,138.5,225.091,115.142Z" transform="translate(227.521 116.45)" fill="#432f07"/>
          <path id="Path_92" data-name="Path 92" d="M0,152.569a76.3,76.3,0,0,0,14.2,39.154,75.188,75.188,0,0,0,49.59,30.305c-3.253.3-6.5.709-9.76.72-18-.113-36.013-.034-54.025-.056Z" transform="translate(0 154.302)" fill="#432f07"/>
          <path id="Path_93" data-name="Path 93" d="M74.994,187.68c1.734-.068,3.467-.124,5.2-.191,21.311.113,42.621.056,63.932.079a77.04,77.04,0,0,0-39.908,15.547A75.177,75.177,0,0,0,75.2,256.667C74.826,233.679,75.22,210.679,74.994,187.68Z" transform="translate(75.846 189.619)" fill="#432f07"/>
          <path id="Path_94" data-name="Path 94" d="M113.989,187.539c22.448-.068,44.884.023,67.332-.056,1.711.034,3.411.034,5.133.034-.214,22.774.383,45.571-.3,68.334-2.747-16.132-9.4-31.859-20.928-43.691C152.04,197.84,133.307,189.228,113.989,187.539Z" transform="translate(115.284 189.613)" fill="#432f07"/>
          <path id="Path_95" data-name="Path 95" d="M37.774,230.1l.405,1.689c2.285,12.372,7.115,24.339,14.916,34.268,12.642,16.729,32.636,27.232,53.429,29.191-22.988.135-45.987.079-68.975.079C37.673,273.587,37.257,251.837,37.774,230.1Z" transform="translate(37.933 232.713)" fill="#432f07"/>
          <path id="Path_96" data-name="Path 96" d="M152.737,262.833c.214-.011.642-.023.856-.023,23-.6,46.01-.1,69.02-.293-.259,22.943.484,45.9-.428,68.829C220.451,295.435,188.626,264.184,152.737,262.833Z" transform="translate(154.472 265.487)" fill="#432f07"/>
          <path id="Path_97" data-name="Path 97" d="M225.051,264.022c1.655,18.451,9.524,36.441,22.853,49.443,13.048,13.374,31.116,21.266,49.646,22.92H224.994C225.017,312.261,224.927,288.136,225.051,264.022Z" transform="translate(227.539 267.022)" fill="#432f07"/>
        </g>
      </g>
      <g id="Artboard_1-2" data-name="Artboard 1" transform="translate(812.824 950.824)">
        <g id="_cc8f17ff-2" data-name="#cc8f17ff">
          <path id="Path_49-2" data-name="Path 49" d="M0,0H150.818c-.045,25.161.09,50.333-.068,75.494C133.4,74.4,116.28,68.154,103.063,56.727A78.085,78.085,0,0,1,78.488,18.451c-1.1-4.447-1.981-8.939-3.2-13.34C73.118,18.5,68.818,31.769,60.645,42.768A78.06,78.06,0,0,1,13.836,73.523C9.254,74.48,4.582,74.908,0,75.843Z" fill="#cc8f17"/>
          <path id="Path_50-2" data-name="Path 50" d="M220.637,0h4.83c0,25.116.248,50.231-.124,75.347-.529,17.641.023,35.3-.293,52.956a48.819,48.819,0,0,0,1.193,10.987c-.2,3.861-.585,7.711-.968,11.573-2.06-.011-4.109-.034-6.158-.1a76.594,76.594,0,0,1-43.128-18.091,75.2,75.2,0,0,1-25.892-52c-1.126-27.514,13.712-54.937,37.33-69.077C197.458,5.224,209.053,2.049,220.637,0Z" transform="translate(151.742)" fill="#cc8f17"/>
          <path id="Path_51-2" data-name="Path 51" d="M300.174,0h75.707V5.043c-1.61,7.9-3.276,15.884-6.574,23.292a78.125,78.125,0,0,1-40.617,40.539c-7.351,3.253-15.243,4.976-23.1,6.507-1.722.056-3.445.09-5.156.135-.011,24.485-.09,48.982.022,73.467.191.27.574.833.765,1.1,1.2,1.1,2.916.709,4.413.912,18.913,2.668,37.24,11.28,50.006,25.724,11.4,12.3,17.719,28.437,20.241,44.85v85.186c-1.644,7.88-3.287,15.851-6.552,23.247a78.362,78.362,0,0,1-39.773,40.212c-7.588,3.5-15.817,5.246-23.967,6.867-1.711.045-3.434.056-5.133.1q-.017-37.741,0-75.471c-2.116-.034-4.222-.056-6.315-.113-20.568-1.756-40.325-12.113-53-28.459a75.956,75.956,0,0,1-16.053-41.552c-.079-1.767-.124-3.546-.113-5.314H300.4c-.5,13.881-.1,27.773-.214,41.664.169,9.13-.5,18.294.507,27.39,1.722-7.711,3.3-15.524,6.676-22.718a78.189,78.189,0,0,1,43.319-41.034c6.338-2.567,13.093-3.771,19.791-4.987-23.348-.72-46.719-.124-70.079-.315.248-22.9-.056-45.8.158-68.694-.113-2.094.405-4.357-.518-6.316-3.647-.912-7.464.529-11.19.473a73.884,73.884,0,0,0-9.817-.934c-17.99.1-35.968.023-53.958.045.011-25.195-.034-50.389.022-75.584,25-.349,50.018.034,75.032-.2C300.241,50.04,300.117,25.026,300.174,0Z" transform="translate(227.527)" fill="#cc8f17"/>
          <path id="Path_52-2" data-name="Path 52" d="M75.066,37.548c25.195-.056,50.378-.011,75.572-.023-.1,25.071-.011,50.13-.045,75.2-3.873.428-7.757.833-11.64,1.069a79.245,79.245,0,0,0-9.783-.934q-27.086.1-54.194.011C74.841,87.768,74.706,62.653,75.066,37.548Z" transform="translate(75.685 37.945)" fill="#cc8f17"/>
          <path id="Path_53-2" data-name="Path 53" d="M37.523,75c25.442,1.058,50.063,14.984,63.392,36.79,6.608,10.076,9.783,21.84,12.068,33.548-.011,1.711-.034,3.422-.056,5.133-25.138-.113-50.288,0-75.426-.056C37.568,125.276,37.523,100.138,37.523,75Z" transform="translate(37.926 75.852)" fill="#cc8f17"/>
          <path id="Path_54-2" data-name="Path 54" d="M124.5,111.8c13.4-21.783,37.983-35.81,63.482-36.767,1.7-.056,3.411-.068,5.122-.023,7.847,1.644,15.794,3.287,23.146,6.586A78.035,78.035,0,0,1,257.8,124.57c2.713,6.541,4.03,13.532,5.257,20.466.923-20.4-.338-40.843.709-61.23,2.769,21.761,15,42.171,33.469,54.138,9.49,6.631,20.748,9.839,31.927,12.248-8,.946-16.053.45-24.091.54-32.681.169-65.362-.585-98.043-.259-2.51.146-4.976.552-7.464.844-3.873-.27-7.734-.709-11.618-.856-25.149-.023-50.31-.079-75.46.034.023-2.083.034-4.165.09-6.237C115.05,132.979,118.044,121.553,124.5,111.8Z" transform="translate(113.761 75.838)" fill="#cc8f17"/>
          <path id="Path_55-2" data-name="Path 55" d="M188.048,143.718c.124-8.815-.462-17.663.574-26.433,2.173,10.38,5.055,20.793,10.852,29.8,13.307,22.087,38.512,36.159,64.292,36.024,25.206-.022,50.412.158,75.617-.1,12.71-.439,25.42-.124,38.141-.214,9.164.146,18.361-.507,27.5.563-10.4,2.2-20.827,5.088-29.855,10.875C353.141,207.5,339.058,232.676,339.2,258.4c25.059.27,50.119.011,75.178.124a91.091,91.091,0,0,1,1.069,11.2,62.177,62.177,0,0,0-.946,9.017c.169,18.406-.011,36.812.1,55.207,13.881.068,27.761.022,41.642.022,7.531-.124,15.13.6,22.594-.844,3.749.1,7.475.507,11.2.934-.022,25.127.056,50.254-.045,75.381-25.149.113-50.31.034-75.471.034.034.743.09,2.207.124,2.95-.124,24.114-.034,48.239-.056,72.364H263.834c.529-34.9-.034-69.808-.068-104.718-.18-13.565.417-27.165-.383-40.719-2.353,19.431-11.719,38.017-26.647,50.794-11.978,10.537-27.266,16.83-43.027,18.845,20.4,1.036,40.843-.27,61.241.721-16.38,2.387-32.231,9.411-43.984,21.243-14.444,13.948-22.538,33.818-22.707,53.834H112.746c-.281-25-.056-50.006-.113-75.009q-3.056-.236-6.113-.439c-20.793-1.959-40.786-12.462-53.429-29.191-7.8-9.929-12.631-21.9-14.916-34.268-.293-3.906-.529-7.813-.664-11.719,21.75.158,43.5-.079,65.249.1,3.276-.056,6.687.417,9.85-.608a34.493,34.493,0,0,0,.5-5.989,75.177,75.177,0,0,1,29.022-53.552,77.04,77.04,0,0,1,39.908-15.547c2.128-.068,4.255-.09,6.383-.079.056,25.093.135,50.2-.045,75.291-22.909-.27-45.818.068-68.728-.18-2.026.158-4.312-.236-6.068,1.013-1.238,1.385-.687,3.31-.642,4.987,1.689,16.166,7.858,32.017,18.823,44.164,13.993,16.211,35.18,25.521,56.524,25.667.146-25.217-.034-50.434.09-75.651,50.277-.079,100.553.326,150.829.158q.068-37.724,0-75.437-37.707-.067-75.4.011c-1.722,0-3.422,0-5.133-.034-7.869-1.587-15.806-3.253-23.179-6.518a78.354,78.354,0,0,1-40.617-40.64c-3.276-7.374-4.886-15.322-6.552-23.179-.034-1.711-.068-3.434-.1-5.133-.326-13.093-.113-26.2-.169-39.289M339.091,337.079c-1.542,13.3-5.6,26.455-13.228,37.555A77.811,77.811,0,0,1,276.173,407.7c-2.06.484-4.233.811-6.045,1.981-.214,0-.642.011-.856.023,35.889,1.351,67.715,32.6,69.448,68.514.912-22.932.169-45.886.428-68.829,23.337-.281,46.7.461,70.011-.383-12.485-1.745-24.778-5.786-35.225-12.98a78.306,78.306,0,0,1-33.019-49A98.945,98.945,0,0,0,339.091,337.079Z" transform="translate(37.937 118.618)" fill="#cc8f17"/>
          <path id="Path_56-2" data-name="Path 56" d="M0,149.944c25.161.023,50.333-.056,75.494.034q.456,23.692-.1,47.395c.338,9.423.169,18.856.068,28.279-3.9-.326-7.779-.7-11.674-.957A75.188,75.188,0,0,1,14.2,194.389,76.3,76.3,0,0,1,0,155.235Z" transform="translate(0 151.636)" fill="#cc8f17"/>
          <path id="Path_57-2" data-name="Path 57" d="M265.6,225.109c1.756-.169,3.512-.36,5.28-.529a88.485,88.485,0,0,0,9.907.889c18-.1,36.013-.023,54.014-.045v67.017c-1.7-7.565-3.344-15.22-6.552-22.313-9.006-20.32-27.4-36.373-48.982-41.957Q272.457,226.483,265.6,225.109Z" transform="translate(268.612 227.131)" fill="#cc8f17"/>
        </g>
        <g id="_7f590eff-2" data-name="#7f590eff">
          <path id="Path_58-2" data-name="Path 58" d="M75.017,0h75.55c-.011,25.161.068,50.31-.045,75.471-25.195.011-50.378-.034-75.572.023C75.107,50.333,74.972,25.161,75.017,0Z" transform="translate(75.801)" fill="#7f590e"/>
          <path id="Path_59-2" data-name="Path 59" d="M187.635,0h2.792c18.8,1.655,37.116,9.772,50.22,23.472,13.025,12.946,20.6,30.711,22.358,48.881.011.732.034,2.184.045,2.916-.056,25.195-.011,50.389-.022,75.584q-37.792,0-75.584.011c.383-3.861.766-7.711.968-11.573a75.749,75.749,0,0,1,29.709-49.038,72.957,72.957,0,0,1,38.67-14.387c-23.078-1.126-46.19-.248-69.279-.518C187.883,50.231,187.635,25.116,187.635,0Z" transform="translate(189.573)" fill="#7f590e"/>
          <path id="Path_60-2" data-name="Path 60" d="M262.508,37.613c1.711-.045,3.433-.079,5.156-.135,23.427.1,46.865.023,70.293.045v75.426c-23.416.09-46.843-.191-70.247.146-1.5-.2-3.208.191-4.413-.912-.191-.27-.574-.833-.765-1.1C262.417,86.595,262.5,62.1,262.508,37.613Z" transform="translate(265.452 37.903)" fill="#7f590e"/>
          <path id="Path_61-2" data-name="Path 61" d="M0,74.968c25.15.068,50.3-.146,75.449.09,0,25.138.045,50.276-.023,75.415-22.752.191-45.537-.45-68.277.315,16.143,2.691,31.837,9.423,43.668,20.928,14.308,13.183,22.9,31.915,24.575,51.222.023.721.079,2.161.1,2.882-25.161-.09-50.333-.011-75.494-.034Z" transform="translate(0 75.794)" fill="#7f590e"/>
          <path id="Path_62-2" data-name="Path 62" d="M138.786,75.98c3.884-.236,7.768-.642,11.64-1.069.034,23.134-.068,46.28.056,69.426-.056,2.071-.068,4.154-.09,6.237q-37.691.084-75.392-.011c.023-1.711.045-3.422.056-5.133a77.383,77.383,0,0,1,13.791-38.422A75.582,75.582,0,0,1,138.786,75.98Z" transform="translate(75.852 75.761)" fill="#7f590e"/>
          <path id="Path_63-2" data-name="Path 63" d="M288.848,75.832c3.726.056,7.543-1.385,11.19-.473.923,1.959.405,4.222.518,6.316-.214,22.9.09,45.8-.158,68.694H224.972a75.66,75.66,0,0,1,63.876-74.537Z" transform="translate(227.528 75.909)" fill="#7f590e"/>
          <path id="Path_64-2" data-name="Path 64" d="M150,112.511c3.884.146,7.745.585,11.618.856a75.727,75.727,0,0,1,47.057,27.187c10.9,13.239,16.5,30.249,16.943,47.282-25.206.259-50.412.079-75.617.1Z" transform="translate(151.704 113.789)" fill="#7f590e"/>
          <path id="Path_65-2" data-name="Path 65" d="M74.976,149.972q37.691-.051,75.381,0c.034,1.7.068,3.422.1,5.133-1.677,20.939-11.967,41.214-28.662,54.115-11.8,9.5-26.545,14.826-41.552,16.233-1.734.068-3.467.124-5.2.191C74.864,200.417,74.988,175.2,74.976,149.972Z" transform="translate(75.797 151.654)" fill="#7f590e"/>
          <path id="Path_66-2" data-name="Path 66" d="M63.786,187.1c3.9.259,7.779.63,11.674.957q-.084,37.741-.011,75.494c.135,3.906.372,7.813.664,11.719l-.405-1.689c-.158-.766-.484-2.308-.642-3.073a75.412,75.412,0,0,1-30.9,53.924A76.642,76.642,0,0,1,0,338.844V187.767c18.012.022,36.024-.056,54.025.056C57.29,187.812,60.532,187.407,63.786,187.1Z" transform="translate(0 189.228)" fill="#7f590e"/>
          <path id="Path_67-2" data-name="Path 67" d="M112.562,187.5l2.916.045c19.318,1.689,38.051,10.3,51.233,24.62,11.528,11.832,18.181,27.559,20.928,43.691.687-22.763.09-45.56.3-68.334q37.707-.118,75.4-.011.084,37.707,0,75.437c-50.276.169-100.553-.236-150.829-.158C112.7,237.7,112.618,212.6,112.562,187.5Z" transform="translate(113.795 189.604)" fill="#7f590e"/>
          <path id="Path_68-2" data-name="Path 68" d="M262.5,187.579c1.7-.045,3.422-.056,5.133-.1,23.427.1,46.865.023,70.293.045v5.055c-1.43,16.132-7.6,31.893-18.271,44.152a76.07,76.07,0,0,1-45.65,25.375c-1.767.169-3.524.36-5.28.529-2.083.124-4.154.281-6.225.439Z" transform="translate(265.482 189.607)" fill="#7f590e"/>
          <path id="Path_69-2" data-name="Path 69" d="M224.944,202.092a62.178,62.178,0,0,1,.946-9.017c3.76,32.14,31.262,59.6,63.392,63.4-7.464,1.441-15.063.72-22.594.844-13.881,0-27.761.045-41.642-.023C224.933,238.9,225.113,220.5,224.944,202.092Z" transform="translate(227.499 195.268)" fill="#7f590e"/>
          <path id="Path_70-2" data-name="Path 70" d="M224.955,262.573c25.161,0,50.322.079,75.471-.034q-.118,37.674-.011,75.347h-2.837c-18.53-1.655-36.6-9.546-49.646-22.92-13.329-13-21.2-30.992-22.853-49.443C225.045,264.779,224.989,263.316,224.955,262.573Z" transform="translate(227.511 265.522)" fill="#7f590e"/>
        </g>
        <g id="_f4ab1bff-2" data-name="#f4ab1bff">
          <path id="Path_71-2" data-name="Path 71" d="M112.594,0H258.6c-11.584,2.049-23.179,5.224-33.21,11.6-23.618,14.14-38.456,41.563-37.33,69.077-.18,23.4-.045,46.8-.1,70.2-25.5.957-50.085,14.984-63.482,36.767-6.451,9.749-9.445,21.176-11.922,32.456-.124-23.146-.023-46.291-.056-69.426.034-25.071-.056-50.13.045-75.2C112.661,50.31,112.582,25.161,112.594,0Z" transform="translate(113.774)" fill="#f4ab1b"/>
          <path id="Path_72-2" data-name="Path 72" d="M225.056,0h75.077c-.056,25.026.068,50.04-.045,75.066-25.014.236-50.029-.146-75.032.2-.011-.732-.034-2.184-.045-2.916C225.09,48.239,225.034,24.114,225.056,0Z" transform="translate(227.567)" fill="#f4ab1b"/>
          <path id="Path_73-2" data-name="Path 73" d="M75.291,2.541c1.216,4.4,2.094,8.894,3.2,13.34a78.085,78.085,0,0,0,24.575,38.276C116.28,65.584,133.4,71.832,150.751,72.924c-.36,25.1-.225,50.22-.09,75.325q27.1.1,54.194-.011a79.242,79.242,0,0,1,9.783.934A75.582,75.582,0,0,0,164.7,180.2a77.383,77.383,0,0,0-13.791,38.422c-2.285-11.708-5.46-23.472-12.068-33.548-13.329-21.806-37.949-35.732-63.392-36.79-25.149-.236-50.3-.023-75.449-.09V73.273c4.582-.934,9.254-1.362,13.836-2.319A78.06,78.06,0,0,0,60.645,40.2C68.818,29.2,73.118,15.926,75.291,2.541Z" transform="translate(0 2.57)" fill="#f4ab1b"/>
          <path id="Path_74-2" data-name="Path 74" d="M328.77,25.8c3.3-7.408,4.965-15.389,6.574-23.292V72.89c-23.427-.023-46.865.056-70.293-.045,7.858-1.531,15.749-3.253,23.1-6.507A78.125,78.125,0,0,0,328.77,25.8Z" transform="translate(268.063 2.536)" fill="#f4ab1b"/>
          <path id="Path_75-2" data-name="Path 75" d="M187.634,37.5c23.089.27,46.2-.608,69.279.518A72.957,72.957,0,0,0,218.243,52.4a75.749,75.749,0,0,0-29.709,49.038,48.818,48.818,0,0,1-1.193-10.987C187.657,72.8,187.1,55.139,187.634,37.5Z" transform="translate(189.451 37.849)" fill="#f4ab1b"/>
          <path id="Path_76-2" data-name="Path 76" d="M152.563,75.045c21.333-.1,42.666,0,64-.09,2.049.068,4.1.09,6.158.1q37.792-.034,75.584-.011c17.99-.023,35.968.056,53.958-.045a73.883,73.883,0,0,1,9.817.934A75.66,75.66,0,0,0,298.2,150.471c-.011,1.767.034,3.546.113,5.314-.18,23.36-.113,46.708-.113,70.056,23.056,0,46.111.056,69.167-.045,2.094.056,4.2.079,6.316.113q.017,37.724,0,75.471v75.494c-3.726-.428-7.453-.833-11.2-.934-32.129-3.805-59.632-31.262-63.392-63.4a91.091,91.091,0,0,0-1.069-11.2c-25.059-.113-50.119.146-75.178-.124-.146-25.724,13.937-50.9,35.968-64.168,9.029-5.786,19.453-8.68,29.855-10.875-9.141-1.069-18.339-.417-27.5-.563-12.721.09-25.431-.225-38.141.214-.439-17.033-6.045-34.043-16.943-47.282a75.727,75.727,0,0,0-47.057-27.187c2.488-.293,4.953-.7,7.464-.844,32.681-.326,65.362.428,98.043.259,8.038-.09,16.087.405,24.091-.54-11.179-2.409-22.436-5.618-31.927-12.248C238.223,126.008,226,105.6,223.227,83.837c-1.047,20.388.214,40.831-.709,61.23-1.227-6.935-2.544-13.926-5.257-20.466a78.035,78.035,0,0,0-41.552-42.97C168.358,78.332,160.41,76.689,152.563,75.045Z" transform="translate(154.297 75.807)" fill="#f4ab1b"/>
          <path id="Path_77-2" data-name="Path 77" d="M265.075,75.159c23.4-.338,46.832-.056,70.247-.146v70.72c-2.522-16.414-8.837-32.546-20.241-44.85C302.315,86.439,283.987,77.827,265.075,75.159Z" transform="translate(268.086 75.839)" fill="#f4ab1b"/>
          <path id="Path_78-2" data-name="Path 78" d="M37.517,112.495c25.138.056,50.288-.056,75.426.056q37.69.135,75.392.011c25.149-.113,50.31-.056,75.46-.034v75.426c-25.78.135-50.986-13.937-64.292-36.024-5.8-9.006-8.68-19.419-10.852-29.8-1.036,8.77-.45,17.618-.574,26.433.056,13.093-.158,26.2.169,39.289q-37.69-.034-75.381,0c.011,25.228-.113,50.445.068,75.674.225,23-.169,46,.2,68.987a34.494,34.494,0,0,1-.5,5.989c-3.163,1.024-6.574.552-9.85.608-21.75-.18-43.5.056-65.249-.1q-.051-37.741.011-75.494c.1-9.423.27-18.857-.068-28.279q.557-23.692.1-47.395c-.023-.721-.079-2.161-.1-2.882C37.551,160.8,37.506,136.642,37.517,112.495Z" transform="translate(37.909 113.772)" fill="#f4ab1b"/>
          <path id="Path_79-2" data-name="Path 79" d="M262.611,112.526c23.36.191,46.73-.405,70.079.315-6.7,1.216-13.453,2.42-19.791,4.987a78.189,78.189,0,0,0-43.319,41.034c-3.377,7.194-4.953,15.006-6.676,22.718-1-9.1-.338-18.26-.507-27.39C262.509,140.3,262.115,126.407,262.611,112.526Z" transform="translate(265.315 113.752)" fill="#f4ab1b"/>
          <path id="Path_80-2" data-name="Path 80" d="M147.794,152.513c1.666,7.858,3.276,15.806,6.552,23.179a78.354,78.354,0,0,0,40.617,40.64c7.374,3.265,15.31,4.931,23.179,6.518-22.448.079-44.884-.011-67.332.056l-2.916-.045c-2.128-.011-4.255.011-6.383.079-21.311-.022-42.621.034-63.932-.079,15.006-1.407,29.754-6.732,41.552-16.233C135.827,193.727,146.117,173.452,147.794,152.513Z" transform="translate(78.462 154.246)" fill="#f4ab1b"/>
          <path id="Path_81-2" data-name="Path 81" d="M328.793,175.76c3.265-7.4,4.908-15.367,6.552-23.247v70.371c-23.427-.023-46.865.056-70.293-.045,8.15-1.621,16.38-3.366,23.967-6.867A78.361,78.361,0,0,0,328.793,175.76Z" transform="translate(268.063 154.246)" fill="#f4ab1b"/>
          <path id="Path_82-2" data-name="Path 82" d="M313.87,234.165c10.672-12.26,16.841-28.02,18.271-44.152v70.371c-18,.022-36.013-.056-54.014.045a88.484,88.484,0,0,1-9.907-.889A76.07,76.07,0,0,0,313.87,234.165Z" transform="translate(271.267 192.172)" fill="#f4ab1b"/>
          <path id="Path_83-2" data-name="Path 83" d="M75.734,225.845c1.756-1.25,4.041-.856,6.068-1.013,22.909.248,45.818-.09,68.728.18-.124,25.217.056,50.434-.09,75.651-21.344-.146-42.531-9.456-56.524-25.667-10.965-12.147-17.134-28-18.823-44.164C75.047,229.155,74.5,227.23,75.734,225.845Z" transform="translate(75.782 227.386)" fill="#f4ab1b"/>
          <path id="Path_84-2" data-name="Path 84" d="M262.549,225.282c2.071-.158,4.143-.315,6.225-.439q6.856,1.385,13.667,3.062c21.581,5.584,39.976,21.637,48.982,41.957,3.208,7.092,4.852,14.748,6.552,22.313V376.01H262.493q-.067-37.674.011-75.347C262.605,275.536,262.526,250.409,262.549,225.282Z" transform="translate(265.433 227.397)" fill="#f4ab1b"/>
          <path id="Path_85-2" data-name="Path 85" d="M222.126,226.562a98.945,98.945,0,0,1,1.824,9.94,78.306,78.306,0,0,0,33.019,49c10.447,7.194,22.74,11.235,35.225,12.98-23.315.844-46.674.1-70.011.383-23.011.191-46.021-.3-69.02.293,1.813-1.171,3.985-1.5,6.045-1.981A77.812,77.812,0,0,0,208.9,264.117C216.531,253.017,220.584,239.857,222.126,226.562Z" transform="translate(154.902 229.135)" fill="#f4ab1b"/>
          <path id="Path_86-2" data-name="Path 86" d="M187.583,227.692c.8,13.554.2,27.153.383,40.719.034,34.91.6,69.82.068,104.718H112.461c.169-20.016,8.263-39.886,22.707-53.834,11.753-11.832,27.6-18.856,43.984-21.243-20.4-.991-40.843.315-61.241-.721,15.761-2.015,31.049-8.308,43.027-18.845C175.864,265.709,185.23,247.123,187.583,227.692Z" transform="translate(113.738 230.279)" fill="#f4ab1b"/>
          <path id="Path_87-2" data-name="Path 87" d="M44.164,282.495a75.413,75.413,0,0,0,30.9-53.924c.158.765.484,2.308.642,3.073-.518,21.738-.1,43.488-.225,65.227,22.988,0,45.987.056,68.975-.079q3.056.2,6.113.439c.056,25-.169,50.006.113,75.009H0V296.9A76.642,76.642,0,0,0,44.164,282.495Z" transform="translate(0 231.167)" fill="#f4ab1b"/>
        </g>
        <g id="_432f07ff-2" data-name="#432f07ff">
          <path id="Path_88-2" data-name="Path 88" d="M188.927,0H261.55c-.023,24.114.034,48.239-.045,72.353-1.756-18.17-9.333-35.934-22.358-48.881C226.044,9.772,207.727,1.655,188.927,0Z" transform="translate(191.073)" fill="#432f07"/>
          <path id="Path_89-2" data-name="Path 89" d="M150.118,40.108a75.2,75.2,0,0,0,25.892,52A76.594,76.594,0,0,0,219.139,110.2c-21.333.09-42.666-.011-64,.09-1.711-.045-3.422-.034-5.122.023C150.073,86.906,149.938,63.513,150.118,40.108Z" transform="translate(151.721 40.564)" fill="#432f07"/>
          <path id="Path_90-2" data-name="Path 90" d="M3.554,112.845c22.74-.766,45.526-.124,68.277-.315-.011,24.148.034,48.306-.034,72.465-1.677-19.307-10.267-38.039-24.575-51.222C35.391,122.268,19.7,115.536,3.554,112.845Z" transform="translate(3.594 113.736)" fill="#432f07"/>
          <path id="Path_91-2" data-name="Path 91" d="M225.091,115.142a75.956,75.956,0,0,0,16.053,41.552c12.676,16.346,32.433,26.7,53,28.459-23.056.1-46.111.045-69.167.045C224.978,161.85,224.911,138.5,225.091,115.142Z" transform="translate(227.521 116.45)" fill="#432f07"/>
          <path id="Path_92-2" data-name="Path 92" d="M0,152.569a76.3,76.3,0,0,0,14.2,39.154,75.188,75.188,0,0,0,49.59,30.305c-3.253.3-6.5.709-9.76.72-18-.113-36.013-.034-54.025-.056Z" transform="translate(0 154.302)" fill="#432f07"/>
          <path id="Path_93-2" data-name="Path 93" d="M74.994,187.68c1.734-.068,3.467-.124,5.2-.191,21.311.113,42.621.056,63.932.079a77.04,77.04,0,0,0-39.908,15.547A75.177,75.177,0,0,0,75.2,256.667C74.826,233.679,75.22,210.679,74.994,187.68Z" transform="translate(75.846 189.619)" fill="#432f07"/>
          <path id="Path_94-2" data-name="Path 94" d="M113.989,187.539c22.448-.068,44.884.023,67.332-.056,1.711.034,3.411.034,5.133.034-.214,22.774.383,45.571-.3,68.334-2.747-16.132-9.4-31.859-20.928-43.691C152.04,197.84,133.307,189.228,113.989,187.539Z" transform="translate(115.284 189.613)" fill="#432f07"/>
          <path id="Path_95-2" data-name="Path 95" d="M37.774,230.1l.405,1.689c2.285,12.372,7.115,24.339,14.916,34.268,12.642,16.729,32.636,27.232,53.429,29.191-22.988.135-45.987.079-68.975.079C37.673,273.587,37.257,251.837,37.774,230.1Z" transform="translate(37.933 232.713)" fill="#432f07"/>
          <path id="Path_96-2" data-name="Path 96" d="M152.737,262.833c.214-.011.642-.023.856-.023,23-.6,46.01-.1,69.02-.293-.259,22.943.484,45.9-.428,68.829C220.451,295.435,188.626,264.184,152.737,262.833Z" transform="translate(154.472 265.487)" fill="#432f07"/>
          <path id="Path_97-2" data-name="Path 97" d="M225.051,264.022c1.655,18.451,9.524,36.441,22.853,49.443,13.048,13.374,31.116,21.266,49.646,22.92H224.994C225.017,312.261,224.927,288.136,225.051,264.022Z" transform="translate(227.539 267.022)" fill="#432f07"/>
        </g>
      </g>
      <g id="Artboard_1-3" data-name="Artboard 1" transform="translate(1415.824 950.824)">
        <g id="_cc8f17ff-3" data-name="#cc8f17ff">
          <path id="Path_49-3" data-name="Path 49" d="M0,0H150.818c-.045,25.161.09,50.333-.068,75.494C133.4,74.4,116.28,68.154,103.063,56.727A78.085,78.085,0,0,1,78.488,18.451c-1.1-4.447-1.981-8.939-3.2-13.34C73.118,18.5,68.818,31.769,60.645,42.768A78.06,78.06,0,0,1,13.836,73.523C9.254,74.48,4.582,74.908,0,75.843Z" fill="#cc8f17"/>
          <path id="Path_50-3" data-name="Path 50" d="M220.637,0h4.83c0,25.116.248,50.231-.124,75.347-.529,17.641.023,35.3-.293,52.956a48.819,48.819,0,0,0,1.193,10.987c-.2,3.861-.585,7.711-.968,11.573-2.06-.011-4.109-.034-6.158-.1a76.594,76.594,0,0,1-43.128-18.091,75.2,75.2,0,0,1-25.892-52c-1.126-27.514,13.712-54.937,37.33-69.077C197.458,5.224,209.053,2.049,220.637,0Z" transform="translate(151.742)" fill="#cc8f17"/>
          <path id="Path_51-3" data-name="Path 51" d="M300.174,0h75.707V5.043c-1.61,7.9-3.276,15.884-6.574,23.292a78.125,78.125,0,0,1-40.617,40.539c-7.351,3.253-15.243,4.976-23.1,6.507-1.722.056-3.445.09-5.156.135-.011,24.485-.09,48.982.022,73.467.191.27.574.833.765,1.1,1.2,1.1,2.916.709,4.413.912,18.913,2.668,37.24,11.28,50.006,25.724,11.4,12.3,17.719,28.437,20.241,44.85v85.186c-1.644,7.88-3.287,15.851-6.552,23.247a78.362,78.362,0,0,1-39.773,40.212c-7.588,3.5-15.817,5.246-23.967,6.867-1.711.045-3.434.056-5.133.1q-.017-37.741,0-75.471c-2.116-.034-4.222-.056-6.315-.113-20.568-1.756-40.325-12.113-53-28.459a75.956,75.956,0,0,1-16.053-41.552c-.079-1.767-.124-3.546-.113-5.314H300.4c-.5,13.881-.1,27.773-.214,41.664.169,9.13-.5,18.294.507,27.39,1.722-7.711,3.3-15.524,6.676-22.718a78.189,78.189,0,0,1,43.319-41.034c6.338-2.567,13.093-3.771,19.791-4.987-23.348-.72-46.719-.124-70.079-.315.248-22.9-.056-45.8.158-68.694-.113-2.094.405-4.357-.518-6.316-3.647-.912-7.464.529-11.19.473a73.884,73.884,0,0,0-9.817-.934c-17.99.1-35.968.023-53.958.045.011-25.195-.034-50.389.022-75.584,25-.349,50.018.034,75.032-.2C300.241,50.04,300.117,25.026,300.174,0Z" transform="translate(227.527)" fill="#cc8f17"/>
          <path id="Path_52-3" data-name="Path 52" d="M75.066,37.548c25.195-.056,50.378-.011,75.572-.023-.1,25.071-.011,50.13-.045,75.2-3.873.428-7.757.833-11.64,1.069a79.245,79.245,0,0,0-9.783-.934q-27.086.1-54.194.011C74.841,87.768,74.706,62.653,75.066,37.548Z" transform="translate(75.685 37.945)" fill="#cc8f17"/>
          <path id="Path_53-3" data-name="Path 53" d="M37.523,75c25.442,1.058,50.063,14.984,63.392,36.79,6.608,10.076,9.783,21.84,12.068,33.548-.011,1.711-.034,3.422-.056,5.133-25.138-.113-50.288,0-75.426-.056C37.568,125.276,37.523,100.138,37.523,75Z" transform="translate(37.926 75.852)" fill="#cc8f17"/>
          <path id="Path_54-3" data-name="Path 54" d="M124.5,111.8c13.4-21.783,37.983-35.81,63.482-36.767,1.7-.056,3.411-.068,5.122-.023,7.847,1.644,15.794,3.287,23.146,6.586A78.035,78.035,0,0,1,257.8,124.57c2.713,6.541,4.03,13.532,5.257,20.466.923-20.4-.338-40.843.709-61.23,2.769,21.761,15,42.171,33.469,54.138,9.49,6.631,20.748,9.839,31.927,12.248-8,.946-16.053.45-24.091.54-32.681.169-65.362-.585-98.043-.259-2.51.146-4.976.552-7.464.844-3.873-.27-7.734-.709-11.618-.856-25.149-.023-50.31-.079-75.46.034.023-2.083.034-4.165.09-6.237C115.05,132.979,118.044,121.553,124.5,111.8Z" transform="translate(113.761 75.838)" fill="#cc8f17"/>
          <path id="Path_55-3" data-name="Path 55" d="M188.048,143.718c.124-8.815-.462-17.663.574-26.433,2.173,10.38,5.055,20.793,10.852,29.8,13.307,22.087,38.512,36.159,64.292,36.024,25.206-.022,50.412.158,75.617-.1,12.71-.439,25.42-.124,38.141-.214,9.164.146,18.361-.507,27.5.563-10.4,2.2-20.827,5.088-29.855,10.875C353.141,207.5,339.058,232.676,339.2,258.4c25.059.27,50.119.011,75.178.124a91.091,91.091,0,0,1,1.069,11.2,62.177,62.177,0,0,0-.946,9.017c.169,18.406-.011,36.812.1,55.207,13.881.068,27.761.022,41.642.022,7.531-.124,15.13.6,22.594-.844,3.749.1,7.475.507,11.2.934-.022,25.127.056,50.254-.045,75.381-25.149.113-50.31.034-75.471.034.034.743.09,2.207.124,2.95-.124,24.114-.034,48.239-.056,72.364H263.834c.529-34.9-.034-69.808-.068-104.718-.18-13.565.417-27.165-.383-40.719-2.353,19.431-11.719,38.017-26.647,50.794-11.978,10.537-27.266,16.83-43.027,18.845,20.4,1.036,40.843-.27,61.241.721-16.38,2.387-32.231,9.411-43.984,21.243-14.444,13.948-22.538,33.818-22.707,53.834H112.746c-.281-25-.056-50.006-.113-75.009q-3.056-.236-6.113-.439c-20.793-1.959-40.786-12.462-53.429-29.191-7.8-9.929-12.631-21.9-14.916-34.268-.293-3.906-.529-7.813-.664-11.719,21.75.158,43.5-.079,65.249.1,3.276-.056,6.687.417,9.85-.608a34.493,34.493,0,0,0,.5-5.989,75.177,75.177,0,0,1,29.022-53.552,77.04,77.04,0,0,1,39.908-15.547c2.128-.068,4.255-.09,6.383-.079.056,25.093.135,50.2-.045,75.291-22.909-.27-45.818.068-68.728-.18-2.026.158-4.312-.236-6.068,1.013-1.238,1.385-.687,3.31-.642,4.987,1.689,16.166,7.858,32.017,18.823,44.164,13.993,16.211,35.18,25.521,56.524,25.667.146-25.217-.034-50.434.09-75.651,50.277-.079,100.553.326,150.829.158q.068-37.724,0-75.437-37.707-.067-75.4.011c-1.722,0-3.422,0-5.133-.034-7.869-1.587-15.806-3.253-23.179-6.518a78.354,78.354,0,0,1-40.617-40.64c-3.276-7.374-4.886-15.322-6.552-23.179-.034-1.711-.068-3.434-.1-5.133-.326-13.093-.113-26.2-.169-39.289M339.091,337.079c-1.542,13.3-5.6,26.455-13.228,37.555A77.811,77.811,0,0,1,276.173,407.7c-2.06.484-4.233.811-6.045,1.981-.214,0-.642.011-.856.023,35.889,1.351,67.715,32.6,69.448,68.514.912-22.932.169-45.886.428-68.829,23.337-.281,46.7.461,70.011-.383-12.485-1.745-24.778-5.786-35.225-12.98a78.306,78.306,0,0,1-33.019-49A98.945,98.945,0,0,0,339.091,337.079Z" transform="translate(37.937 118.618)" fill="#cc8f17"/>
          <path id="Path_56-3" data-name="Path 56" d="M0,149.944c25.161.023,50.333-.056,75.494.034q.456,23.692-.1,47.395c.338,9.423.169,18.856.068,28.279-3.9-.326-7.779-.7-11.674-.957A75.188,75.188,0,0,1,14.2,194.389,76.3,76.3,0,0,1,0,155.235Z" transform="translate(0 151.636)" fill="#cc8f17"/>
          <path id="Path_57-3" data-name="Path 57" d="M265.6,225.109c1.756-.169,3.512-.36,5.28-.529a88.485,88.485,0,0,0,9.907.889c18-.1,36.013-.023,54.014-.045v67.017c-1.7-7.565-3.344-15.22-6.552-22.313-9.006-20.32-27.4-36.373-48.982-41.957Q272.457,226.483,265.6,225.109Z" transform="translate(268.612 227.131)" fill="#cc8f17"/>
        </g>
        <g id="_7f590eff-3" data-name="#7f590eff">
          <path id="Path_58-3" data-name="Path 58" d="M75.017,0h75.55c-.011,25.161.068,50.31-.045,75.471-25.195.011-50.378-.034-75.572.023C75.107,50.333,74.972,25.161,75.017,0Z" transform="translate(75.801)" fill="#7f590e"/>
          <path id="Path_59-3" data-name="Path 59" d="M187.635,0h2.792c18.8,1.655,37.116,9.772,50.22,23.472,13.025,12.946,20.6,30.711,22.358,48.881.011.732.034,2.184.045,2.916-.056,25.195-.011,50.389-.022,75.584q-37.792,0-75.584.011c.383-3.861.766-7.711.968-11.573a75.749,75.749,0,0,1,29.709-49.038,72.957,72.957,0,0,1,38.67-14.387c-23.078-1.126-46.19-.248-69.279-.518C187.883,50.231,187.635,25.116,187.635,0Z" transform="translate(189.573)" fill="#7f590e"/>
          <path id="Path_60-3" data-name="Path 60" d="M262.508,37.613c1.711-.045,3.433-.079,5.156-.135,23.427.1,46.865.023,70.293.045v75.426c-23.416.09-46.843-.191-70.247.146-1.5-.2-3.208.191-4.413-.912-.191-.27-.574-.833-.765-1.1C262.417,86.595,262.5,62.1,262.508,37.613Z" transform="translate(265.452 37.903)" fill="#7f590e"/>
          <path id="Path_61-3" data-name="Path 61" d="M0,74.968c25.15.068,50.3-.146,75.449.09,0,25.138.045,50.276-.023,75.415-22.752.191-45.537-.45-68.277.315,16.143,2.691,31.837,9.423,43.668,20.928,14.308,13.183,22.9,31.915,24.575,51.222.023.721.079,2.161.1,2.882-25.161-.09-50.333-.011-75.494-.034Z" transform="translate(0 75.794)" fill="#7f590e"/>
          <path id="Path_62-3" data-name="Path 62" d="M138.786,75.98c3.884-.236,7.768-.642,11.64-1.069.034,23.134-.068,46.28.056,69.426-.056,2.071-.068,4.154-.09,6.237q-37.691.084-75.392-.011c.023-1.711.045-3.422.056-5.133a77.383,77.383,0,0,1,13.791-38.422A75.582,75.582,0,0,1,138.786,75.98Z" transform="translate(75.852 75.761)" fill="#7f590e"/>
          <path id="Path_63-3" data-name="Path 63" d="M288.848,75.832c3.726.056,7.543-1.385,11.19-.473.923,1.959.405,4.222.518,6.316-.214,22.9.09,45.8-.158,68.694H224.972a75.66,75.66,0,0,1,63.876-74.537Z" transform="translate(227.528 75.909)" fill="#7f590e"/>
          <path id="Path_64-3" data-name="Path 64" d="M150,112.511c3.884.146,7.745.585,11.618.856a75.727,75.727,0,0,1,47.057,27.187c10.9,13.239,16.5,30.249,16.943,47.282-25.206.259-50.412.079-75.617.1Z" transform="translate(151.704 113.789)" fill="#7f590e"/>
          <path id="Path_65-3" data-name="Path 65" d="M74.976,149.972q37.691-.051,75.381,0c.034,1.7.068,3.422.1,5.133-1.677,20.939-11.967,41.214-28.662,54.115-11.8,9.5-26.545,14.826-41.552,16.233-1.734.068-3.467.124-5.2.191C74.864,200.417,74.988,175.2,74.976,149.972Z" transform="translate(75.797 151.654)" fill="#7f590e"/>
          <path id="Path_66-3" data-name="Path 66" d="M63.786,187.1c3.9.259,7.779.63,11.674.957q-.084,37.741-.011,75.494c.135,3.906.372,7.813.664,11.719l-.405-1.689c-.158-.766-.484-2.308-.642-3.073a75.412,75.412,0,0,1-30.9,53.924A76.642,76.642,0,0,1,0,338.844V187.767c18.012.022,36.024-.056,54.025.056C57.29,187.812,60.532,187.407,63.786,187.1Z" transform="translate(0 189.228)" fill="#7f590e"/>
          <path id="Path_67-3" data-name="Path 67" d="M112.562,187.5l2.916.045c19.318,1.689,38.051,10.3,51.233,24.62,11.528,11.832,18.181,27.559,20.928,43.691.687-22.763.09-45.56.3-68.334q37.707-.118,75.4-.011.084,37.707,0,75.437c-50.276.169-100.553-.236-150.829-.158C112.7,237.7,112.618,212.6,112.562,187.5Z" transform="translate(113.795 189.604)" fill="#7f590e"/>
          <path id="Path_68-3" data-name="Path 68" d="M262.5,187.579c1.7-.045,3.422-.056,5.133-.1,23.427.1,46.865.023,70.293.045v5.055c-1.43,16.132-7.6,31.893-18.271,44.152a76.07,76.07,0,0,1-45.65,25.375c-1.767.169-3.524.36-5.28.529-2.083.124-4.154.281-6.225.439Z" transform="translate(265.482 189.607)" fill="#7f590e"/>
          <path id="Path_69-3" data-name="Path 69" d="M224.944,202.092a62.178,62.178,0,0,1,.946-9.017c3.76,32.14,31.262,59.6,63.392,63.4-7.464,1.441-15.063.72-22.594.844-13.881,0-27.761.045-41.642-.023C224.933,238.9,225.113,220.5,224.944,202.092Z" transform="translate(227.499 195.268)" fill="#7f590e"/>
          <path id="Path_70-3" data-name="Path 70" d="M224.955,262.573c25.161,0,50.322.079,75.471-.034q-.118,37.674-.011,75.347h-2.837c-18.53-1.655-36.6-9.546-49.646-22.92-13.329-13-21.2-30.992-22.853-49.443C225.045,264.779,224.989,263.316,224.955,262.573Z" transform="translate(227.511 265.522)" fill="#7f590e"/>
        </g>
        <g id="_f4ab1bff-3" data-name="#f4ab1bff">
          <path id="Path_71-3" data-name="Path 71" d="M112.594,0H258.6c-11.584,2.049-23.179,5.224-33.21,11.6-23.618,14.14-38.456,41.563-37.33,69.077-.18,23.4-.045,46.8-.1,70.2-25.5.957-50.085,14.984-63.482,36.767-6.451,9.749-9.445,21.176-11.922,32.456-.124-23.146-.023-46.291-.056-69.426.034-25.071-.056-50.13.045-75.2C112.661,50.31,112.582,25.161,112.594,0Z" transform="translate(113.774)" fill="#f4ab1b"/>
          <path id="Path_72-3" data-name="Path 72" d="M225.056,0h75.077c-.056,25.026.068,50.04-.045,75.066-25.014.236-50.029-.146-75.032.2-.011-.732-.034-2.184-.045-2.916C225.09,48.239,225.034,24.114,225.056,0Z" transform="translate(227.567)" fill="#f4ab1b"/>
          <path id="Path_73-3" data-name="Path 73" d="M75.291,2.541c1.216,4.4,2.094,8.894,3.2,13.34a78.085,78.085,0,0,0,24.575,38.276C116.28,65.584,133.4,71.832,150.751,72.924c-.36,25.1-.225,50.22-.09,75.325q27.1.1,54.194-.011a79.242,79.242,0,0,1,9.783.934A75.582,75.582,0,0,0,164.7,180.2a77.383,77.383,0,0,0-13.791,38.422c-2.285-11.708-5.46-23.472-12.068-33.548-13.329-21.806-37.949-35.732-63.392-36.79-25.149-.236-50.3-.023-75.449-.09V73.273c4.582-.934,9.254-1.362,13.836-2.319A78.06,78.06,0,0,0,60.645,40.2C68.818,29.2,73.118,15.926,75.291,2.541Z" transform="translate(0 2.57)" fill="#f4ab1b"/>
          <path id="Path_74-3" data-name="Path 74" d="M328.77,25.8c3.3-7.408,4.965-15.389,6.574-23.292V72.89c-23.427-.023-46.865.056-70.293-.045,7.858-1.531,15.749-3.253,23.1-6.507A78.125,78.125,0,0,0,328.77,25.8Z" transform="translate(268.063 2.536)" fill="#f4ab1b"/>
          <path id="Path_75-3" data-name="Path 75" d="M187.634,37.5c23.089.27,46.2-.608,69.279.518A72.957,72.957,0,0,0,218.243,52.4a75.749,75.749,0,0,0-29.709,49.038,48.818,48.818,0,0,1-1.193-10.987C187.657,72.8,187.1,55.139,187.634,37.5Z" transform="translate(189.451 37.849)" fill="#f4ab1b"/>
          <path id="Path_76-3" data-name="Path 76" d="M152.563,75.045c21.333-.1,42.666,0,64-.09,2.049.068,4.1.09,6.158.1q37.792-.034,75.584-.011c17.99-.023,35.968.056,53.958-.045a73.883,73.883,0,0,1,9.817.934A75.66,75.66,0,0,0,298.2,150.471c-.011,1.767.034,3.546.113,5.314-.18,23.36-.113,46.708-.113,70.056,23.056,0,46.111.056,69.167-.045,2.094.056,4.2.079,6.316.113q.017,37.724,0,75.471v75.494c-3.726-.428-7.453-.833-11.2-.934-32.129-3.805-59.632-31.262-63.392-63.4a91.091,91.091,0,0,0-1.069-11.2c-25.059-.113-50.119.146-75.178-.124-.146-25.724,13.937-50.9,35.968-64.168,9.029-5.786,19.453-8.68,29.855-10.875-9.141-1.069-18.339-.417-27.5-.563-12.721.09-25.431-.225-38.141.214-.439-17.033-6.045-34.043-16.943-47.282a75.727,75.727,0,0,0-47.057-27.187c2.488-.293,4.953-.7,7.464-.844,32.681-.326,65.362.428,98.043.259,8.038-.09,16.087.405,24.091-.54-11.179-2.409-22.436-5.618-31.927-12.248C238.223,126.008,226,105.6,223.227,83.837c-1.047,20.388.214,40.831-.709,61.23-1.227-6.935-2.544-13.926-5.257-20.466a78.035,78.035,0,0,0-41.552-42.97C168.358,78.332,160.41,76.689,152.563,75.045Z" transform="translate(154.297 75.807)" fill="#f4ab1b"/>
          <path id="Path_77-3" data-name="Path 77" d="M265.075,75.159c23.4-.338,46.832-.056,70.247-.146v70.72c-2.522-16.414-8.837-32.546-20.241-44.85C302.315,86.439,283.987,77.827,265.075,75.159Z" transform="translate(268.086 75.839)" fill="#f4ab1b"/>
          <path id="Path_78-3" data-name="Path 78" d="M37.517,112.495c25.138.056,50.288-.056,75.426.056q37.69.135,75.392.011c25.149-.113,50.31-.056,75.46-.034v75.426c-25.78.135-50.986-13.937-64.292-36.024-5.8-9.006-8.68-19.419-10.852-29.8-1.036,8.77-.45,17.618-.574,26.433.056,13.093-.158,26.2.169,39.289q-37.69-.034-75.381,0c.011,25.228-.113,50.445.068,75.674.225,23-.169,46,.2,68.987a34.494,34.494,0,0,1-.5,5.989c-3.163,1.024-6.574.552-9.85.608-21.75-.18-43.5.056-65.249-.1q-.051-37.741.011-75.494c.1-9.423.27-18.857-.068-28.279q.557-23.692.1-47.395c-.023-.721-.079-2.161-.1-2.882C37.551,160.8,37.506,136.642,37.517,112.495Z" transform="translate(37.909 113.772)" fill="#f4ab1b"/>
          <path id="Path_79-3" data-name="Path 79" d="M262.611,112.526c23.36.191,46.73-.405,70.079.315-6.7,1.216-13.453,2.42-19.791,4.987a78.189,78.189,0,0,0-43.319,41.034c-3.377,7.194-4.953,15.006-6.676,22.718-1-9.1-.338-18.26-.507-27.39C262.509,140.3,262.115,126.407,262.611,112.526Z" transform="translate(265.315 113.752)" fill="#f4ab1b"/>
          <path id="Path_80-3" data-name="Path 80" d="M147.794,152.513c1.666,7.858,3.276,15.806,6.552,23.179a78.354,78.354,0,0,0,40.617,40.64c7.374,3.265,15.31,4.931,23.179,6.518-22.448.079-44.884-.011-67.332.056l-2.916-.045c-2.128-.011-4.255.011-6.383.079-21.311-.022-42.621.034-63.932-.079,15.006-1.407,29.754-6.732,41.552-16.233C135.827,193.727,146.117,173.452,147.794,152.513Z" transform="translate(78.462 154.246)" fill="#f4ab1b"/>
          <path id="Path_81-3" data-name="Path 81" d="M328.793,175.76c3.265-7.4,4.908-15.367,6.552-23.247v70.371c-23.427-.023-46.865.056-70.293-.045,8.15-1.621,16.38-3.366,23.967-6.867A78.361,78.361,0,0,0,328.793,175.76Z" transform="translate(268.063 154.246)" fill="#f4ab1b"/>
          <path id="Path_82-3" data-name="Path 82" d="M313.87,234.165c10.672-12.26,16.841-28.02,18.271-44.152v70.371c-18,.022-36.013-.056-54.014.045a88.484,88.484,0,0,1-9.907-.889A76.07,76.07,0,0,0,313.87,234.165Z" transform="translate(271.267 192.172)" fill="#f4ab1b"/>
          <path id="Path_83-3" data-name="Path 83" d="M75.734,225.845c1.756-1.25,4.041-.856,6.068-1.013,22.909.248,45.818-.09,68.728.18-.124,25.217.056,50.434-.09,75.651-21.344-.146-42.531-9.456-56.524-25.667-10.965-12.147-17.134-28-18.823-44.164C75.047,229.155,74.5,227.23,75.734,225.845Z" transform="translate(75.782 227.386)" fill="#f4ab1b"/>
          <path id="Path_84-3" data-name="Path 84" d="M262.549,225.282c2.071-.158,4.143-.315,6.225-.439q6.856,1.385,13.667,3.062c21.581,5.584,39.976,21.637,48.982,41.957,3.208,7.092,4.852,14.748,6.552,22.313V376.01H262.493q-.067-37.674.011-75.347C262.605,275.536,262.526,250.409,262.549,225.282Z" transform="translate(265.433 227.397)" fill="#f4ab1b"/>
          <path id="Path_85-3" data-name="Path 85" d="M222.126,226.562a98.945,98.945,0,0,1,1.824,9.94,78.306,78.306,0,0,0,33.019,49c10.447,7.194,22.74,11.235,35.225,12.98-23.315.844-46.674.1-70.011.383-23.011.191-46.021-.3-69.02.293,1.813-1.171,3.985-1.5,6.045-1.981A77.812,77.812,0,0,0,208.9,264.117C216.531,253.017,220.584,239.857,222.126,226.562Z" transform="translate(154.902 229.135)" fill="#f4ab1b"/>
          <path id="Path_86-3" data-name="Path 86" d="M187.583,227.692c.8,13.554.2,27.153.383,40.719.034,34.91.6,69.82.068,104.718H112.461c.169-20.016,8.263-39.886,22.707-53.834,11.753-11.832,27.6-18.856,43.984-21.243-20.4-.991-40.843.315-61.241-.721,15.761-2.015,31.049-8.308,43.027-18.845C175.864,265.709,185.23,247.123,187.583,227.692Z" transform="translate(113.738 230.279)" fill="#f4ab1b"/>
          <path id="Path_87-3" data-name="Path 87" d="M44.164,282.495a75.413,75.413,0,0,0,30.9-53.924c.158.765.484,2.308.642,3.073-.518,21.738-.1,43.488-.225,65.227,22.988,0,45.987.056,68.975-.079q3.056.2,6.113.439c.056,25-.169,50.006.113,75.009H0V296.9A76.642,76.642,0,0,0,44.164,282.495Z" transform="translate(0 231.167)" fill="#f4ab1b"/>
        </g>
        <g id="_432f07ff-3" data-name="#432f07ff">
          <path id="Path_88-3" data-name="Path 88" d="M188.927,0H261.55c-.023,24.114.034,48.239-.045,72.353-1.756-18.17-9.333-35.934-22.358-48.881C226.044,9.772,207.727,1.655,188.927,0Z" transform="translate(191.073)" fill="#432f07"/>
          <path id="Path_89-3" data-name="Path 89" d="M150.118,40.108a75.2,75.2,0,0,0,25.892,52A76.594,76.594,0,0,0,219.139,110.2c-21.333.09-42.666-.011-64,.09-1.711-.045-3.422-.034-5.122.023C150.073,86.906,149.938,63.513,150.118,40.108Z" transform="translate(151.721 40.564)" fill="#432f07"/>
          <path id="Path_90-3" data-name="Path 90" d="M3.554,112.845c22.74-.766,45.526-.124,68.277-.315-.011,24.148.034,48.306-.034,72.465-1.677-19.307-10.267-38.039-24.575-51.222C35.391,122.268,19.7,115.536,3.554,112.845Z" transform="translate(3.594 113.736)" fill="#432f07"/>
          <path id="Path_91-3" data-name="Path 91" d="M225.091,115.142a75.956,75.956,0,0,0,16.053,41.552c12.676,16.346,32.433,26.7,53,28.459-23.056.1-46.111.045-69.167.045C224.978,161.85,224.911,138.5,225.091,115.142Z" transform="translate(227.521 116.45)" fill="#432f07"/>
          <path id="Path_92-3" data-name="Path 92" d="M0,152.569a76.3,76.3,0,0,0,14.2,39.154,75.188,75.188,0,0,0,49.59,30.305c-3.253.3-6.5.709-9.76.72-18-.113-36.013-.034-54.025-.056Z" transform="translate(0 154.302)" fill="#432f07"/>
          <path id="Path_93-3" data-name="Path 93" d="M74.994,187.68c1.734-.068,3.467-.124,5.2-.191,21.311.113,42.621.056,63.932.079a77.04,77.04,0,0,0-39.908,15.547A75.177,75.177,0,0,0,75.2,256.667C74.826,233.679,75.22,210.679,74.994,187.68Z" transform="translate(75.846 189.619)" fill="#432f07"/>
          <path id="Path_94-3" data-name="Path 94" d="M113.989,187.539c22.448-.068,44.884.023,67.332-.056,1.711.034,3.411.034,5.133.034-.214,22.774.383,45.571-.3,68.334-2.747-16.132-9.4-31.859-20.928-43.691C152.04,197.84,133.307,189.228,113.989,187.539Z" transform="translate(115.284 189.613)" fill="#432f07"/>
          <path id="Path_95-3" data-name="Path 95" d="M37.774,230.1l.405,1.689c2.285,12.372,7.115,24.339,14.916,34.268,12.642,16.729,32.636,27.232,53.429,29.191-22.988.135-45.987.079-68.975.079C37.673,273.587,37.257,251.837,37.774,230.1Z" transform="translate(37.933 232.713)" fill="#432f07"/>
          <path id="Path_96-3" data-name="Path 96" d="M152.737,262.833c.214-.011.642-.023.856-.023,23-.6,46.01-.1,69.02-.293-.259,22.943.484,45.9-.428,68.829C220.451,295.435,188.626,264.184,152.737,262.833Z" transform="translate(154.472 265.487)" fill="#432f07"/>
          <path id="Path_97-3" data-name="Path 97" d="M225.051,264.022c1.655,18.451,9.524,36.441,22.853,49.443,13.048,13.374,31.116,21.266,49.646,22.92H224.994C225.017,312.261,224.927,288.136,225.051,264.022Z" transform="translate(227.539 267.022)" fill="#432f07"/>
        </g>
      </g>
    </g>
    <g id="Mask_Group_2" data-name="Mask Group 2" clip-path="url(#clip-path)">
      <g id="Path_98" data-name="Path 98" transform="translate(262 1028)" fill="none" opacity="0.8">
        <path d="M394.5,0C612.376,0,789,176.624,789,394.5S612.376,789,394.5,789,0,612.376,0,394.5,176.624,0,394.5,0Z" stroke="none"/>
        <path d="M 394.5 280 C 331.3646240234375 280 280 331.3646240234375 280 394.5 C 280 457.6353759765625 331.3646240234375 509 394.5 509 C 457.6353759765625 509 509 457.6353759765625 509 394.5 C 509 331.3646240234375 457.6353759765625 280 394.5 280 M 394.5 0 C 612.3761596679688 0 789 176.6234741210938 789 394.5 C 789 612.3761596679688 612.3761596679688 789 394.5 789 C 176.6234741210938 789 0 612.3761596679688 0 394.5 C 0 176.6234741210938 176.6234741210938 0 394.5 0 Z" stroke="none" fill="#679966"/>
      </g>
    </g>
    <g id="Mask_Group_3" data-name="Mask Group 3" clip-path="url(#clip-path)">
      <g id="Ellipse_3" data-name="Ellipse 3" transform="translate(1006 541)" fill="none" stroke="#679966" stroke-width="250" opacity="0.8">
        <circle cx="340" cy="340" r="340" stroke="none"/>
        <circle cx="340" cy="340" r="215" fill="none"/>
      </g>
    </g>
    <text id="Protection_Towards_Bacteria_Viruses" data-name="Protection
Towards
Bacteria &amp;
Viruses" transform="translate(462 1124)" fill="#fffef1" font-size="40" font-family="Omnes-Medium, Omnes" font-weight="500"><tspan x="-93.262" y="0">Protection</tspan><tspan x="-76.279" y="45">Towards</tspan><tspan x="-90.557" y="90">Bacteria &amp;</tspan><tspan x="-64.98" y="135">Viruses</tspan></text>
    <text id="Safe_to_Use" data-name="Safe
to Use" transform="translate(741 1160)" fill="#fffef1" font-size="40" font-family="Omnes-Medium, Omnes" font-weight="500"><tspan x="-39.375" y="0">Safe</tspan><tspan x="-55.234" y="45">to Use</tspan></text>
    <text id="Not_Irritant_to_The_Skin" data-name="Not Irritant
to The Skin" transform="translate(1029 1154)" fill="#fffef1" font-size="40" font-family="Omnes-Medium, Omnes" font-weight="500"><tspan x="-96.934" y="0">Not Irritant</tspan><tspan x="-95.781" y="45">to The Skin</tspan></text>
    <text id="Has_Strong_Odor_Eliminating_Properties" data-name="Has Strong
Odor Eliminating
Properties" transform="translate(1408 1138)" fill="#fffef1" font-size="40" font-family="Omnes-Medium, Omnes" font-weight="500"><tspan x="-95.088" y="0">Has Strong</tspan><tspan x="-146.279" y="45">Odor Eliminating</tspan><tspan x="-92.168" y="90">Properties</tspan></text>
    <text id="_" data-name="+" transform="translate(623 1178)" fill="#fffef1" font-size="60" font-family="Omnes-Medium, Omnes" font-weight="500"><tspan x="-16.128" y="0">+</tspan></text>
    <text id="_2" data-name="+" transform="translate(864 1178)" fill="#fffef1" font-size="60" font-family="Omnes-Medium, Omnes" font-weight="500"><tspan x="-16.128" y="0">+</tspan></text>
    <text id="_3" data-name="+" transform="translate(1194 1178)" fill="#fffef1" font-size="60" font-family="Omnes-Medium, Omnes" font-weight="500"><tspan x="-16.128" y="0">+</tspan></text>
  </g>
</svg>
