<svg xmlns="http://www.w3.org/2000/svg" xmlns:xlink="http://www.w3.org/1999/xlink" width="322" height="92" viewBox="0 0 322 92">
  <defs>
    <clipPath id="clip-path">
      <path id="Path_44" data-name="Path 44" d="M25,0H297a25,25,0,0,1,25,25V67a25,25,0,0,1-25,25H25A25,25,0,0,1,0,67V25A25,25,0,0,1,25,0Z" transform="translate(46 120)" fill="#fbb01c"/>
    </clipPath>
    <clipPath id="clip-path-2">
      <rect id="Rectangle_1" data-name="Rectangle 1" width="322" height="92" rx="25" transform="translate(46 446)" fill="#fbb01c"/>
    </clipPath>
  </defs>
  <g id="Group_11" data-name="Group 11" transform="translate(-46 -120)">
    <g id="Mask_Group_3" data-name="Mask Group 3" clip-path="url(#clip-path)">
      <g id="Artboard_1" data-name="Artboard 1" transform="translate(22.831 73.838)">
        <g id="_cc8f17ff" data-name="#cc8f17ff">
          <path id="Path_45" data-name="Path 45" d="M0,0H46.131c-.014,7.7.028,15.4-.021,23.091a24.7,24.7,0,0,1-14.586-5.74A23.884,23.884,0,0,1,24.007,5.644c-.337-1.36-.606-2.734-.978-4.08a26.147,26.147,0,0,1-4.48,11.518A23.876,23.876,0,0,1,4.232,22.489c-1.4.293-2.83.424-4.232.709Z" fill="#cc8f17"/>
          <path id="Path_46" data-name="Path 46" d="M67.606,0h1.477c0,7.682.076,15.364-.038,23.046-.162,5.4.007,10.8-.09,16.2a14.932,14.932,0,0,0,.365,3.361c-.062,1.181-.179,2.359-.3,3.54-.63,0-1.257-.01-1.884-.031A23.428,23.428,0,0,1,53.949,40.58a23,23,0,0,1-7.92-15.9A23.961,23.961,0,0,1,57.448,3.547,27.728,27.728,0,0,1,67.606,0Z" transform="translate(46.294)" fill="#cc8f17"/>
          <path id="Path_47" data-name="Path 47" d="M91.993,0H115.15V1.543a34.038,34.038,0,0,1-2.011,7.124,23.9,23.9,0,0,1-12.424,12.4,32.814,32.814,0,0,1-7.066,1.99c-.527.017-1.054.028-1.577.041,0,7.489-.028,14.982.007,22.471.059.083.176.255.234.337.368.337.892.217,1.35.279a25.035,25.035,0,0,1,15.3,7.868,25.787,25.787,0,0,1,6.191,13.718V93.828a35.255,35.255,0,0,1-2,7.111,23.968,23.968,0,0,1-12.165,12.3,32.408,32.408,0,0,1-7.331,2.1c-.523.014-1.05.017-1.57.031q-.005-11.544,0-23.084c-.647-.01-1.291-.017-1.932-.034A23.09,23.09,0,0,1,69.026,70.837c-.024-.541-.038-1.085-.034-1.625h23.07c-.152,4.246-.031,8.495-.065,12.744.052,2.793-.152,5.6.155,8.378a33.07,33.07,0,0,1,2.042-6.949,23.916,23.916,0,0,1,13.25-12.551,30.459,30.459,0,0,1,6.053-1.525c-7.142-.22-14.29-.038-21.435-.1.076-7-.017-14.008.048-21.011a5.046,5.046,0,0,0-.158-1.932c-1.116-.279-2.283.162-3.423.145a22.6,22.6,0,0,0-3-.286c-5.5.031-11,.007-16.5.014,0-7.706-.01-15.412.007-23.119,7.648-.107,15.3.01,22.95-.062C92.014,15.306,91.976,7.655,91.993,0Z" transform="translate(69.414)" fill="#cc8f17"/>
          <path id="Path_48" data-name="Path 48" d="M23.02,11.515c7.706-.017,15.409,0,23.115-.007-.031,7.668,0,15.333-.014,23-1.185.131-2.372.255-3.56.327a24.238,24.238,0,0,0-2.992-.286q-8.285.031-16.576,0C22.951,26.876,22.91,19.193,23.02,11.515Z" transform="translate(23.09 11.576)" fill="#cc8f17"/>
          <path id="Path_49" data-name="Path 49" d="M11.507,23A24.175,24.175,0,0,1,30.9,34.253a28.314,28.314,0,0,1,3.691,10.261c0,.523-.01,1.047-.017,1.57-7.689-.034-15.381,0-23.07-.017C11.521,38.378,11.507,30.689,11.507,23Z" transform="translate(11.571 23.141)" fill="#cc8f17"/>
          <path id="Path_50" data-name="Path 50" d="M38.169,34.257A24.161,24.161,0,0,1,57.586,23.011c.52-.017,1.043-.021,1.567-.007a34.281,34.281,0,0,1,7.08,2.014A23.868,23.868,0,0,1,78.942,38.162a29.7,29.7,0,0,1,1.608,6.26c.282-6.239-.1-12.493.217-18.728A23.378,23.378,0,0,0,91,42.253,26.484,26.484,0,0,0,100.769,46a69.206,69.206,0,0,1-7.369.165c-10,.052-19.992-.179-29.988-.079-.768.045-1.522.169-2.283.258-1.185-.083-2.366-.217-3.554-.262-7.692-.007-15.388-.024-23.081.01.007-.637.01-1.274.028-1.908C35.28,40.734,36.2,37.239,38.169,34.257Z" transform="translate(34.706 23.137)" fill="#cc8f17"/>
          <path id="Path_51" data-name="Path 51" d="M57.548,44.053a78.145,78.145,0,0,1,.176-8.085,26.677,26.677,0,0,0,3.319,9.115A23.191,23.191,0,0,0,80.708,56.1c7.71-.007,15.419.048,23.129-.031,3.888-.134,7.775-.038,11.666-.065a83.608,83.608,0,0,1,8.412.172,27,27,0,0,0-9.132,3.326,23.151,23.151,0,0,0-11,19.627c7.665.083,15.33,0,22.995.038a27.862,27.862,0,0,1,.327,3.426,19.022,19.022,0,0,0-.289,2.758c.052,5.63,0,11.26.031,16.886,4.246.021,8.491.007,12.737.007a39.6,39.6,0,0,0,6.911-.258c1.147.031,2.286.155,3.426.286-.007,7.686.017,15.371-.014,23.057-7.692.034-15.388.01-23.084.01.01.227.028.675.038.9-.038,7.376-.01,14.755-.017,22.134H80.729c.162-10.674-.01-21.352-.021-32.03-.055-4.149.127-8.309-.117-12.455a24.4,24.4,0,0,1-8.15,15.536,24.663,24.663,0,0,1-13.161,5.764c6.239.317,12.493-.083,18.732.22a23.732,23.732,0,0,0-13.453,6.5,23.329,23.329,0,0,0-6.945,16.466h-23.1c-.086-7.648-.017-15.3-.034-22.943q-.935-.072-1.87-.134a23.37,23.37,0,0,1-16.342-8.929,23.952,23.952,0,0,1-4.562-10.482c-.09-1.195-.162-2.39-.2-3.585,6.653.048,13.305-.024,19.958.031a10.26,10.26,0,0,0,3.013-.186,10.55,10.55,0,0,0,.152-1.832A22.994,22.994,0,0,1,43.5,83.937a23.564,23.564,0,0,1,12.207-4.755c.651-.021,1.3-.028,1.952-.024.017,7.675.041,15.354-.014,23.029-7.007-.083-14.014.021-21.022-.055a3.5,3.5,0,0,0-1.856.31c-.379.424-.21,1.012-.2,1.525a23.824,23.824,0,0,0,5.757,13.508,23.254,23.254,0,0,0,17.289,7.851c.045-7.713-.01-15.426.028-23.139,15.378-.024,30.756.1,46.134.048q.021-11.539,0-23.074-11.534-.021-23.064,0c-.527,0-1.047,0-1.57-.01a33.9,33.9,0,0,1-7.09-1.994A23.966,23.966,0,0,1,59.635,64.73a35.291,35.291,0,0,1-2-7.09c-.01-.523-.021-1.05-.031-1.57-.1-4-.034-8.013-.052-12.017m46.2,59.143A25.34,25.34,0,0,1,99.7,114.683,23.8,23.8,0,0,1,84.5,124.8a5.7,5.7,0,0,0-1.849.606c-.065,0-.2,0-.262.007,10.977.413,20.712,9.972,21.242,20.956.279-7.014.052-14.035.131-21.053,7.138-.086,14.283.141,21.414-.117a25.034,25.034,0,0,1-10.774-3.97,23.951,23.951,0,0,1-10.1-14.989A30.261,30.261,0,0,0,103.748,103.2Z" transform="translate(11.574 36.188)" fill="#cc8f17"/>
          <path id="Path_52" data-name="Path 52" d="M0,45.983c7.7.007,15.4-.017,23.091.01q.139,7.247-.031,14.5c.1,2.882.052,5.768.021,8.65-1.191-.1-2.379-.213-3.571-.293a23,23,0,0,1-15.168-9.27A23.338,23.338,0,0,1,0,47.6Z" transform="translate(0 46.261)" fill="#cc8f17"/>
          <path id="Path_53" data-name="Path 53" d="M81.449,69.033c.537-.052,1.074-.11,1.615-.162a27.058,27.058,0,0,0,3.03.272c5.506-.031,11.015-.007,16.521-.014v20.5a34.972,34.972,0,0,0-2-6.825A23,23,0,0,0,85.629,69.97Q83.548,69.453,81.449,69.033Z" transform="translate(81.949 69.294)" fill="#cc8f17"/>
        </g>
        <g id="_7f590eff" data-name="#7f590eff">
          <path id="Path_54" data-name="Path 54" d="M23.005,0H46.114c0,7.7.021,15.388-.014,23.084-7.706,0-15.409-.01-23.115.007C23.033,15.4,22.991,7.7,23.005,0Z" transform="translate(23.125)" fill="#7f590e"/>
          <path id="Path_55" data-name="Path 55" d="M57.541,0H58.4a24.2,24.2,0,0,1,22.2,22.13l.014.892c-.017,7.706,0,15.412-.007,23.119q-11.559,0-23.119,0c.117-1.181.234-2.359.3-3.54a23.169,23.169,0,0,1,9.087-15,22.315,22.315,0,0,1,11.828-4.4c-7.059-.344-14.128-.076-21.19-.158C57.617,15.364,57.541,7.682,57.541,0Z" transform="translate(57.835)" fill="#7f590e"/>
          <path id="Path_56" data-name="Path 56" d="M80.5,11.534c.523-.014,1.05-.024,1.577-.041,7.166.031,14.335.007,21.5.014V34.577c-7.162.028-14.328-.059-21.487.045-.458-.062-.981.059-1.35-.279-.059-.083-.176-.255-.234-.337C80.475,26.516,80.5,19.024,80.5,11.534Z" transform="translate(80.984 11.564)" fill="#7f590e"/>
          <path id="Path_57" data-name="Path 57" d="M0,22.99c7.692.021,15.385-.045,23.077.028,0,7.689.014,15.378-.007,23.067-6.959.059-13.928-.138-20.884.1a24.927,24.927,0,0,1,13.357,6.4A24.248,24.248,0,0,1,23.06,68.25c.007.22.024.661.031.882-7.7-.028-15.4,0-23.091-.01Z" transform="translate(0 23.123)" fill="#7f590e"/>
          <path id="Path_58" data-name="Path 58" d="M42.51,23.3c1.188-.072,2.376-.2,3.56-.327.01,7.076-.021,14.156.017,21.235-.017.634-.021,1.271-.028,1.908q-11.528.026-23.06,0c.007-.523.014-1.047.017-1.57A23.669,23.669,0,0,1,27.235,32.79,23.118,23.118,0,0,1,42.51,23.3Z" transform="translate(23.141 23.113)" fill="#7f590e"/>
          <path id="Path_59" data-name="Path 59" d="M88.529,23.255c1.14.017,2.307-.424,3.423-.145a5.046,5.046,0,0,1,.158,1.932c-.065,7,.028,14.008-.048,21.011H68.991a23.142,23.142,0,0,1,19.538-22.8Z" transform="translate(69.414 23.158)" fill="#7f590e"/>
          <path id="Path_60" data-name="Path 60" d="M46,34.5c1.188.045,2.369.179,3.554.262a23.163,23.163,0,0,1,14.393,8.316,23.757,23.757,0,0,1,5.182,14.462c-7.71.079-15.419.024-23.129.031Z" transform="translate(46.282 34.715)" fill="#7f590e"/>
          <path id="Path_61" data-name="Path 61" d="M22.993,45.991q11.528-.015,23.057,0c.01.52.021,1.047.031,1.57a23.423,23.423,0,0,1-8.767,16.552A23.8,23.8,0,0,1,24.6,69.079c-.53.021-1.061.038-1.591.059C22.958,61.421,23,53.708,22.993,45.991Z" transform="translate(23.124 46.267)" fill="#7f590e"/>
          <path id="Path_62" data-name="Path 62" d="M19.51,57.378c1.191.079,2.379.193,3.571.293q-.026,11.544,0,23.091c.041,1.195.114,2.39.2,3.585l-.124-.517c-.048-.234-.148-.706-.2-.94a23.066,23.066,0,0,1-9.452,16.494A23.442,23.442,0,0,1,0,103.791V57.581c5.509.007,11.019-.017,16.525.017C17.523,57.6,18.515,57.471,19.51,57.378Z" transform="translate(0 57.73)" fill="#7f590e"/>
          <path id="Path_63" data-name="Path 63" d="M34.519,57.5l.892.014a24.265,24.265,0,0,1,15.671,7.531,25.034,25.034,0,0,1,6.4,13.364c.21-6.962.028-13.935.093-20.9q11.534-.036,23.064,0,.026,11.534,0,23.074c-15.378.052-30.756-.072-46.134-.048C34.56,72.855,34.536,65.176,34.519,57.5Z" transform="translate(34.717 57.845)" fill="#7f590e"/>
          <path id="Path_64" data-name="Path 64" d="M80.5,57.524c.52-.014,1.047-.017,1.57-.031,7.166.031,14.335.007,21.5.014v1.546a23.805,23.805,0,0,1-5.589,13.5,23.268,23.268,0,0,1-13.963,7.761c-.541.052-1.078.11-1.615.162-.637.038-1.271.086-1.9.134Z" transform="translate(80.994 57.846)" fill="#7f590e"/>
          <path id="Path_65" data-name="Path 65" d="M68.983,61.968a19.021,19.021,0,0,1,.289-2.758A22.74,22.74,0,0,0,88.662,78.6a39.594,39.594,0,0,1-6.911.258c-4.246,0-8.491.014-12.737-.007C68.979,73.227,69.034,67.6,68.983,61.968Z" transform="translate(69.406 59.573)" fill="#7f590e"/>
          <path id="Path_66" data-name="Path 66" d="M68.986,80.522c7.7,0,15.392.024,23.084-.01q-.036,11.523,0,23.046H91.2A24.165,24.165,0,0,1,69.024,81.424C69.014,81.2,69,80.75,68.986,80.522Z" transform="translate(69.409 81.006)" fill="#7f590e"/>
        </g>
        <g id="_f4ab1bff" data-name="#f4ab1bff">
          <path id="Path_67" data-name="Path 67" d="M34.529,0h44.66A27.728,27.728,0,0,0,69.031,3.547,23.961,23.961,0,0,0,57.613,24.675c-.055,7.159-.014,14.314-.031,21.473A24.161,24.161,0,0,0,38.165,57.394c-1.973,2.982-2.889,6.477-3.647,9.927-.038-7.08-.007-14.159-.017-21.235.01-7.668-.017-15.333.014-23C34.549,15.388,34.525,7.7,34.529,0Z" transform="translate(34.71)" fill="#f4ab1b"/>
          <path id="Path_68" data-name="Path 68" d="M69.017,0H91.981c-.017,7.655.021,15.306-.014,22.96-7.651.072-15.3-.045-22.95.062,0-.224-.01-.668-.014-.892C69.028,14.755,69.01,7.376,69.017,0Z" transform="translate(69.426)" fill="#f4ab1b"/>
          <path id="Path_69" data-name="Path 69" d="M23.029.779c.372,1.346.64,2.72.978,4.08a23.884,23.884,0,0,0,7.517,11.707,24.7,24.7,0,0,0,14.586,5.74c-.11,7.679-.069,15.361-.028,23.04q8.29.031,16.576,0a24.239,24.239,0,0,1,2.992.286,23.118,23.118,0,0,0-15.275,9.49,23.669,23.669,0,0,0-4.218,11.752A28.314,28.314,0,0,0,42.467,56.61a24.175,24.175,0,0,0-19.39-11.253C15.385,45.285,7.692,45.35,0,45.329V22.414C1.4,22.128,2.83,22,4.232,21.7A23.876,23.876,0,0,0,18.549,12.3,26.147,26.147,0,0,0,23.029.779Z" transform="translate(0 0.784)" fill="#f4ab1b"/>
          <path id="Path_70" data-name="Path 70" d="M100.772,7.893A34.039,34.039,0,0,0,102.783.769V22.3c-7.166-.007-14.335.017-21.5-.014a32.814,32.814,0,0,0,7.066-1.99A23.9,23.9,0,0,0,100.772,7.893Z" transform="translate(81.781 0.774)" fill="#f4ab1b"/>
          <path id="Path_71" data-name="Path 71" d="M57.541,11.5c7.062.083,14.132-.186,21.19.158a22.315,22.315,0,0,0-11.828,4.4,23.169,23.169,0,0,0-9.087,15,14.931,14.931,0,0,1-.365-3.361C57.548,22.3,57.379,16.9,57.541,11.5Z" transform="translate(57.798 11.547)" fill="#f4ab1b"/>
          <path id="Path_72" data-name="Path 72" d="M46.786,23.014c6.525-.031,13.05,0,19.575-.028.627.021,1.253.028,1.884.031q11.559-.01,23.119,0c5.5-.007,11,.017,16.5-.014a22.6,22.6,0,0,1,3,.286,23.142,23.142,0,0,0-19.538,22.8c0,.541.01,1.085.034,1.625-.055,7.145-.034,14.286-.034,21.428,7.052,0,14.1.017,21.156-.014.64.017,1.284.024,1.932.034q.005,11.539,0,23.084v23.091c-1.14-.131-2.279-.255-3.426-.286A22.74,22.74,0,0,1,91.6,95.655a27.863,27.863,0,0,0-.327-3.426c-7.665-.034-15.33.045-22.995-.038a23.151,23.151,0,0,1,11-19.627,27,27,0,0,1,9.132-3.326A83.608,83.608,0,0,0,80,69.065c-3.891.028-7.779-.069-11.666.065a23.757,23.757,0,0,0-5.182-14.462,23.163,23.163,0,0,0-14.393-8.316c.761-.09,1.515-.213,2.283-.258,10-.1,19.992.131,29.988.079a69.2,69.2,0,0,0,7.369-.165,26.484,26.484,0,0,1-9.765-3.746A23.378,23.378,0,0,1,68.4,25.7c-.32,6.236.065,12.489-.217,18.728a29.7,29.7,0,0,0-1.608-6.26A23.868,23.868,0,0,0,53.866,25.028,34.282,34.282,0,0,0,46.786,23.014Z" transform="translate(47.073 23.127)" fill="#f4ab1b"/>
          <path id="Path_73" data-name="Path 73" d="M81.29,23.049c7.159-.1,14.324-.017,21.487-.045V44.635a25.787,25.787,0,0,0-6.191-13.718A25.035,25.035,0,0,0,81.29,23.049Z" transform="translate(81.788 23.137)" fill="#f4ab1b"/>
          <path id="Path_74" data-name="Path 74" d="M11.505,34.5c7.689.017,15.381-.017,23.07.017s15.375.021,23.06,0c7.692-.034,15.388-.017,23.081-.01v23.07A23.191,23.191,0,0,1,61.052,46.56a26.677,26.677,0,0,1-3.319-9.115,78.147,78.147,0,0,0-.176,8.085c.017,4-.048,8.013.052,12.017q-11.528-.01-23.057,0c0,7.717-.034,15.43.021,23.146.069,7.035-.052,14.07.062,21.1a10.55,10.55,0,0,1-.152,1.832,10.26,10.26,0,0,1-3.013.186c-6.653-.055-13.305.017-19.958-.031q-.015-11.544,0-23.091c.031-2.882.083-5.768-.021-8.65q.17-7.247.031-14.5c-.007-.22-.024-.661-.031-.882C11.516,49.274,11.5,41.884,11.505,34.5Z" transform="translate(11.565 34.71)" fill="#f4ab1b"/>
          <path id="Path_75" data-name="Path 75" d="M80.534,34.508c7.145.059,14.293-.124,21.435.1a30.459,30.459,0,0,0-6.053,1.525,23.916,23.916,0,0,0-13.25,12.551,33.071,33.071,0,0,0-2.042,6.949c-.306-2.782-.1-5.585-.155-8.378C80.5,43,80.382,38.754,80.534,34.508Z" transform="translate(80.943 34.704)" fill="#f4ab1b"/>
          <path id="Path_76" data-name="Path 76" d="M45.267,46.771a35.291,35.291,0,0,0,2,7.09A23.966,23.966,0,0,0,59.7,66.291a33.9,33.9,0,0,0,7.09,1.994c-6.866.024-13.729,0-20.595.017l-.892-.014c-.651,0-1.3,0-1.952.024-6.518-.007-13.037.01-19.555-.024A23.8,23.8,0,0,0,36.5,63.323,23.423,23.423,0,0,0,45.267,46.771Z" transform="translate(23.937 47.057)" fill="#f4ab1b"/>
          <path id="Path_77" data-name="Path 77" d="M100.779,53.881a35.255,35.255,0,0,0,2-7.111V68.3c-7.166-.007-14.335.017-21.5-.014a32.408,32.408,0,0,0,7.331-2.1A23.968,23.968,0,0,0,100.779,53.881Z" transform="translate(81.781 47.057)" fill="#f4ab1b"/>
          <path id="Path_78" data-name="Path 78" d="M96.217,71.776a23.805,23.805,0,0,0,5.589-13.5V79.8c-5.506.007-11.015-.017-16.521.014a27.058,27.058,0,0,1-3.03-.272A23.267,23.267,0,0,0,96.217,71.776Z" transform="translate(82.758 58.628)" fill="#f4ab1b"/>
          <path id="Path_79" data-name="Path 79" d="M23.224,69.258a3.5,3.5,0,0,1,1.856-.31c7.007.076,14.014-.028,21.022.055-.038,7.713.017,15.426-.028,23.139a23.254,23.254,0,0,1-17.289-7.851,23.824,23.824,0,0,1-5.757-13.508C23.014,70.271,22.846,69.682,23.224,69.258Z" transform="translate(23.12 69.371)" fill="#f4ab1b"/>
          <path id="Path_80" data-name="Path 80" d="M80.515,69.086c.634-.048,1.267-.1,1.9-.134q2.1.424,4.18.937a23,23,0,0,1,14.982,12.833,34.973,34.973,0,0,1,2,6.825v25.643H80.5q-.021-11.523,0-23.046C80.532,84.457,80.508,76.772,80.515,69.086Z" transform="translate(80.979 69.375)" fill="#f4ab1b"/>
          <path id="Path_81" data-name="Path 81" d="M68.064,69.479a30.26,30.26,0,0,1,.558,3.04,23.951,23.951,0,0,0,10.1,14.989A25.034,25.034,0,0,0,89.5,91.478c-7.131.258-14.276.031-21.414.117-7.038.059-14.076-.093-21.111.09a5.7,5.7,0,0,1,1.849-.606,23.8,23.8,0,0,0,15.2-10.113A25.339,25.339,0,0,0,68.064,69.479Z" transform="translate(47.258 69.905)" fill="#f4ab1b"/>
          <path id="Path_82" data-name="Path 82" d="M57.466,69.826c.244,4.146.062,8.305.117,12.455.01,10.678.182,21.356.021,32.03H34.488a23.329,23.329,0,0,1,6.945-16.466,23.732,23.732,0,0,1,13.453-6.5c-6.239-.3-12.493.1-18.732-.22a24.663,24.663,0,0,0,13.161-5.764A24.4,24.4,0,0,0,57.466,69.826Z" transform="translate(34.699 70.254)" fill="#f4ab1b"/>
          <path id="Path_83" data-name="Path 83" d="M13.508,86.589A23.066,23.066,0,0,0,22.96,70.1c.048.234.148.706.2.94-.158,6.649-.031,13.3-.069,19.951,7.031,0,14.066.017,21.1-.024q.935.062,1.87.134c.017,7.648-.052,15.3.034,22.943H0V91A23.442,23.442,0,0,0,13.508,86.589Z" transform="translate(0 70.525)" fill="#f4ab1b"/>
        </g>
        <g id="_432f07ff" data-name="#432f07ff">
          <path id="Path_84" data-name="Path 84" d="M57.938,0H80.151c-.007,7.376.01,14.755-.014,22.13A24.2,24.2,0,0,0,57.938,0Z" transform="translate(58.293)" fill="#432f07"/>
          <path id="Path_85" data-name="Path 85" d="M46.036,12.3a23,23,0,0,0,7.92,15.9,23.428,23.428,0,0,0,13.191,5.533c-6.525.028-13.05,0-19.575.028-.523-.014-1.047-.01-1.567.007C46.022,26.614,45.981,19.459,46.036,12.3Z" transform="translate(46.287 12.375)" fill="#432f07"/>
          <path id="Path_86" data-name="Path 86" d="M1.09,34.606c6.956-.234,13.925-.038,20.884-.1,0,7.386.01,14.775-.01,22.165a24.248,24.248,0,0,0-7.517-15.667A24.928,24.928,0,0,0,1.09,34.606Z" transform="translate(1.097 34.699)" fill="#432f07"/>
          <path id="Path_87" data-name="Path 87" d="M69.028,35.31A23.09,23.09,0,0,0,90.149,56.724c-7.052.031-14.1.014-21.156.014C68.993,49.6,68.973,42.455,69.028,35.31Z" transform="translate(69.412 35.527)" fill="#432f07"/>
          <path id="Path_88" data-name="Path 88" d="M0,46.788A23.338,23.338,0,0,0,4.342,58.764a23,23,0,0,0,15.168,9.27c-1,.093-1.987.217-2.985.22-5.506-.034-11.015-.01-16.525-.017Z" transform="translate(0 47.075)" fill="#432f07"/>
          <path id="Path_89" data-name="Path 89" d="M23,57.555c.53-.021,1.061-.038,1.591-.059,6.518.034,13.037.017,19.555.024a23.564,23.564,0,0,0-12.207,4.755,22.994,22.994,0,0,0-8.877,16.38C22.947,71.625,23.067,64.59,23,57.555Z" transform="translate(23.139 57.849)" fill="#432f07"/>
          <path id="Path_90" data-name="Path 90" d="M34.957,57.512c6.866-.021,13.729.007,20.595-.017.523.01,1.043.01,1.57.01-.065,6.966.117,13.939-.093,20.9a25.034,25.034,0,0,0-6.4-13.364A24.265,24.265,0,0,0,34.957,57.512Z" transform="translate(35.171 57.847)" fill="#432f07"/>
          <path id="Path_91" data-name="Path 91" d="M11.584,70.564l.124.517A23.952,23.952,0,0,0,16.27,81.562,23.37,23.37,0,0,0,32.613,90.49c-7.031.041-14.066.024-21.1.024C11.553,83.865,11.426,77.213,11.584,70.564Z" transform="translate(11.573 70.996)" fill="#432f07"/>
          <path id="Path_92" data-name="Path 92" d="M46.839,80.6c.065,0,.2-.007.262-.007,7.035-.183,14.073-.031,21.111-.09-.079,7.018.148,14.039-.131,21.053C67.551,90.574,57.817,81.015,46.839,80.6Z" transform="translate(47.126 80.995)" fill="#432f07"/>
          <path id="Path_93" data-name="Path 93" d="M69.015,80.967A24.165,24.165,0,0,0,91.191,103.1H69C69.005,95.722,68.978,88.343,69.015,80.967Z" transform="translate(69.418 81.463)" fill="#432f07"/>
        </g>
      </g>
      <g id="Artboard_1-2" data-name="Artboard 1" transform="translate(391.395 73.838) rotate(90)">
        <g id="_cc8f17ff-2" data-name="#cc8f17ff">
          <path id="Path_45-2" data-name="Path 45" d="M0,0H46.131c-.014,7.7.028,15.4-.021,23.091a24.7,24.7,0,0,1-14.586-5.74A23.884,23.884,0,0,1,24.007,5.644c-.337-1.36-.606-2.734-.978-4.08a26.147,26.147,0,0,1-4.48,11.518A23.876,23.876,0,0,1,4.232,22.489c-1.4.293-2.83.424-4.232.709Z" fill="#cc8f17"/>
          <path id="Path_46-2" data-name="Path 46" d="M67.606,0h1.477c0,7.682.076,15.364-.038,23.046-.162,5.4.007,10.8-.09,16.2a14.932,14.932,0,0,0,.365,3.361c-.062,1.181-.179,2.359-.3,3.54-.63,0-1.257-.01-1.884-.031A23.428,23.428,0,0,1,53.949,40.58a23,23,0,0,1-7.92-15.9A23.961,23.961,0,0,1,57.448,3.547,27.728,27.728,0,0,1,67.606,0Z" transform="translate(46.294)" fill="#cc8f17"/>
          <path id="Path_47-2" data-name="Path 47" d="M91.993,0H115.15V1.543a34.038,34.038,0,0,1-2.011,7.124,23.9,23.9,0,0,1-12.424,12.4,32.814,32.814,0,0,1-7.066,1.99c-.527.017-1.054.028-1.577.041,0,7.489-.028,14.982.007,22.471.059.083.176.255.234.337.368.337.892.217,1.35.279a25.035,25.035,0,0,1,15.3,7.868,25.787,25.787,0,0,1,6.191,13.718V93.828a35.255,35.255,0,0,1-2,7.111,23.968,23.968,0,0,1-12.165,12.3,32.408,32.408,0,0,1-7.331,2.1c-.523.014-1.05.017-1.57.031q-.005-11.544,0-23.084c-.647-.01-1.291-.017-1.932-.034A23.09,23.09,0,0,1,69.026,70.837c-.024-.541-.038-1.085-.034-1.625h23.07c-.152,4.246-.031,8.495-.065,12.744.052,2.793-.152,5.6.155,8.378a33.07,33.07,0,0,1,2.042-6.949,23.916,23.916,0,0,1,13.25-12.551,30.459,30.459,0,0,1,6.053-1.525c-7.142-.22-14.29-.038-21.435-.1.076-7-.017-14.008.048-21.011a5.046,5.046,0,0,0-.158-1.932c-1.116-.279-2.283.162-3.423.145a22.6,22.6,0,0,0-3-.286c-5.5.031-11,.007-16.5.014,0-7.706-.01-15.412.007-23.119,7.648-.107,15.3.01,22.95-.062C92.014,15.306,91.976,7.655,91.993,0Z" transform="translate(69.414)" fill="#cc8f17"/>
          <path id="Path_48-2" data-name="Path 48" d="M23.02,11.515c7.706-.017,15.409,0,23.115-.007-.031,7.668,0,15.333-.014,23-1.185.131-2.372.255-3.56.327a24.238,24.238,0,0,0-2.992-.286q-8.285.031-16.576,0C22.951,26.876,22.91,19.193,23.02,11.515Z" transform="translate(23.09 11.576)" fill="#cc8f17"/>
          <path id="Path_49-2" data-name="Path 49" d="M11.507,23A24.175,24.175,0,0,1,30.9,34.253a28.314,28.314,0,0,1,3.691,10.261c0,.523-.01,1.047-.017,1.57-7.689-.034-15.381,0-23.07-.017C11.521,38.378,11.507,30.689,11.507,23Z" transform="translate(11.571 23.141)" fill="#cc8f17"/>
          <path id="Path_50-2" data-name="Path 50" d="M38.169,34.257A24.161,24.161,0,0,1,57.586,23.011c.52-.017,1.043-.021,1.567-.007a34.281,34.281,0,0,1,7.08,2.014A23.868,23.868,0,0,1,78.942,38.162a29.7,29.7,0,0,1,1.608,6.26c.282-6.239-.1-12.493.217-18.728A23.378,23.378,0,0,0,91,42.253,26.484,26.484,0,0,0,100.769,46a69.206,69.206,0,0,1-7.369.165c-10,.052-19.992-.179-29.988-.079-.768.045-1.522.169-2.283.258-1.185-.083-2.366-.217-3.554-.262-7.692-.007-15.388-.024-23.081.01.007-.637.01-1.274.028-1.908C35.28,40.734,36.2,37.239,38.169,34.257Z" transform="translate(34.706 23.137)" fill="#cc8f17"/>
          <path id="Path_51-2" data-name="Path 51" d="M57.548,44.053a78.145,78.145,0,0,1,.176-8.085,26.677,26.677,0,0,0,3.319,9.115A23.191,23.191,0,0,0,80.708,56.1c7.71-.007,15.419.048,23.129-.031,3.888-.134,7.775-.038,11.666-.065a83.608,83.608,0,0,1,8.412.172,27,27,0,0,0-9.132,3.326,23.151,23.151,0,0,0-11,19.627c7.665.083,15.33,0,22.995.038a27.862,27.862,0,0,1,.327,3.426,19.022,19.022,0,0,0-.289,2.758c.052,5.63,0,11.26.031,16.886,4.246.021,8.491.007,12.737.007a39.6,39.6,0,0,0,6.911-.258c1.147.031,2.286.155,3.426.286-.007,7.686.017,15.371-.014,23.057-7.692.034-15.388.01-23.084.01.01.227.028.675.038.9-.038,7.376-.01,14.755-.017,22.134H80.729c.162-10.674-.01-21.352-.021-32.03-.055-4.149.127-8.309-.117-12.455a24.4,24.4,0,0,1-8.15,15.536,24.663,24.663,0,0,1-13.161,5.764c6.239.317,12.493-.083,18.732.22a23.732,23.732,0,0,0-13.453,6.5,23.329,23.329,0,0,0-6.945,16.466h-23.1c-.086-7.648-.017-15.3-.034-22.943q-.935-.072-1.87-.134a23.37,23.37,0,0,1-16.342-8.929,23.952,23.952,0,0,1-4.562-10.482c-.09-1.195-.162-2.39-.2-3.585,6.653.048,13.305-.024,19.958.031a10.26,10.26,0,0,0,3.013-.186,10.55,10.55,0,0,0,.152-1.832A22.994,22.994,0,0,1,43.5,83.937a23.564,23.564,0,0,1,12.207-4.755c.651-.021,1.3-.028,1.952-.024.017,7.675.041,15.354-.014,23.029-7.007-.083-14.014.021-21.022-.055a3.5,3.5,0,0,0-1.856.31c-.379.424-.21,1.012-.2,1.525a23.824,23.824,0,0,0,5.757,13.508,23.254,23.254,0,0,0,17.289,7.851c.045-7.713-.01-15.426.028-23.139,15.378-.024,30.756.1,46.134.048q.021-11.539,0-23.074-11.534-.021-23.064,0c-.527,0-1.047,0-1.57-.01a33.9,33.9,0,0,1-7.09-1.994A23.966,23.966,0,0,1,59.635,64.73a35.291,35.291,0,0,1-2-7.09c-.01-.523-.021-1.05-.031-1.57-.1-4-.034-8.013-.052-12.017m46.2,59.143A25.34,25.34,0,0,1,99.7,114.683,23.8,23.8,0,0,1,84.5,124.8a5.7,5.7,0,0,0-1.849.606c-.065,0-.2,0-.262.007,10.977.413,20.712,9.972,21.242,20.956.279-7.014.052-14.035.131-21.053,7.138-.086,14.283.141,21.414-.117a25.034,25.034,0,0,1-10.774-3.97,23.951,23.951,0,0,1-10.1-14.989A30.261,30.261,0,0,0,103.748,103.2Z" transform="translate(11.574 36.188)" fill="#cc8f17"/>
          <path id="Path_52-2" data-name="Path 52" d="M0,45.983c7.7.007,15.4-.017,23.091.01q.139,7.247-.031,14.5c.1,2.882.052,5.768.021,8.65-1.191-.1-2.379-.213-3.571-.293a23,23,0,0,1-15.168-9.27A23.338,23.338,0,0,1,0,47.6Z" transform="translate(0 46.261)" fill="#cc8f17"/>
          <path id="Path_53-2" data-name="Path 53" d="M81.449,69.033c.537-.052,1.074-.11,1.615-.162a27.058,27.058,0,0,0,3.03.272c5.506-.031,11.015-.007,16.521-.014v20.5a34.972,34.972,0,0,0-2-6.825A23,23,0,0,0,85.629,69.97Q83.548,69.453,81.449,69.033Z" transform="translate(81.949 69.294)" fill="#cc8f17"/>
        </g>
        <g id="_7f590eff-2" data-name="#7f590eff">
          <path id="Path_54-2" data-name="Path 54" d="M23.005,0H46.114c0,7.7.021,15.388-.014,23.084-7.706,0-15.409-.01-23.115.007C23.033,15.4,22.991,7.7,23.005,0Z" transform="translate(23.125)" fill="#7f590e"/>
          <path id="Path_55-2" data-name="Path 55" d="M57.541,0H58.4a24.2,24.2,0,0,1,22.2,22.13l.014.892c-.017,7.706,0,15.412-.007,23.119q-11.559,0-23.119,0c.117-1.181.234-2.359.3-3.54a23.169,23.169,0,0,1,9.087-15,22.315,22.315,0,0,1,11.828-4.4c-7.059-.344-14.128-.076-21.19-.158C57.617,15.364,57.541,7.682,57.541,0Z" transform="translate(57.835)" fill="#7f590e"/>
          <path id="Path_56-2" data-name="Path 56" d="M80.5,11.534c.523-.014,1.05-.024,1.577-.041,7.166.031,14.335.007,21.5.014V34.577c-7.162.028-14.328-.059-21.487.045-.458-.062-.981.059-1.35-.279-.059-.083-.176-.255-.234-.337C80.475,26.516,80.5,19.024,80.5,11.534Z" transform="translate(80.984 11.564)" fill="#7f590e"/>
          <path id="Path_57-2" data-name="Path 57" d="M0,22.99c7.692.021,15.385-.045,23.077.028,0,7.689.014,15.378-.007,23.067-6.959.059-13.928-.138-20.884.1a24.927,24.927,0,0,1,13.357,6.4A24.248,24.248,0,0,1,23.06,68.25c.007.22.024.661.031.882-7.7-.028-15.4,0-23.091-.01Z" transform="translate(0 23.123)" fill="#7f590e"/>
          <path id="Path_58-2" data-name="Path 58" d="M42.51,23.3c1.188-.072,2.376-.2,3.56-.327.01,7.076-.021,14.156.017,21.235-.017.634-.021,1.271-.028,1.908q-11.528.026-23.06,0c.007-.523.014-1.047.017-1.57A23.669,23.669,0,0,1,27.235,32.79,23.118,23.118,0,0,1,42.51,23.3Z" transform="translate(23.141 23.113)" fill="#7f590e"/>
          <path id="Path_59-2" data-name="Path 59" d="M88.529,23.255c1.14.017,2.307-.424,3.423-.145a5.046,5.046,0,0,1,.158,1.932c-.065,7,.028,14.008-.048,21.011H68.991a23.142,23.142,0,0,1,19.538-22.8Z" transform="translate(69.414 23.158)" fill="#7f590e"/>
          <path id="Path_60-2" data-name="Path 60" d="M46,34.5c1.188.045,2.369.179,3.554.262a23.163,23.163,0,0,1,14.393,8.316,23.757,23.757,0,0,1,5.182,14.462c-7.71.079-15.419.024-23.129.031Z" transform="translate(46.282 34.715)" fill="#7f590e"/>
          <path id="Path_61-2" data-name="Path 61" d="M22.993,45.991q11.528-.015,23.057,0c.01.52.021,1.047.031,1.57a23.423,23.423,0,0,1-8.767,16.552A23.8,23.8,0,0,1,24.6,69.079c-.53.021-1.061.038-1.591.059C22.958,61.421,23,53.708,22.993,45.991Z" transform="translate(23.124 46.267)" fill="#7f590e"/>
          <path id="Path_62-2" data-name="Path 62" d="M19.51,57.378c1.191.079,2.379.193,3.571.293q-.026,11.544,0,23.091c.041,1.195.114,2.39.2,3.585l-.124-.517c-.048-.234-.148-.706-.2-.94a23.066,23.066,0,0,1-9.452,16.494A23.442,23.442,0,0,1,0,103.791V57.581c5.509.007,11.019-.017,16.525.017C17.523,57.6,18.515,57.471,19.51,57.378Z" transform="translate(0 57.73)" fill="#7f590e"/>
          <path id="Path_63-2" data-name="Path 63" d="M34.519,57.5l.892.014a24.265,24.265,0,0,1,15.671,7.531,25.034,25.034,0,0,1,6.4,13.364c.21-6.962.028-13.935.093-20.9q11.534-.036,23.064,0,.026,11.534,0,23.074c-15.378.052-30.756-.072-46.134-.048C34.56,72.855,34.536,65.176,34.519,57.5Z" transform="translate(34.717 57.845)" fill="#7f590e"/>
          <path id="Path_64-2" data-name="Path 64" d="M80.5,57.524c.52-.014,1.047-.017,1.57-.031,7.166.031,14.335.007,21.5.014v1.546a23.805,23.805,0,0,1-5.589,13.5,23.268,23.268,0,0,1-13.963,7.761c-.541.052-1.078.11-1.615.162-.637.038-1.271.086-1.9.134Z" transform="translate(80.994 57.846)" fill="#7f590e"/>
          <path id="Path_65-2" data-name="Path 65" d="M68.983,61.968a19.021,19.021,0,0,1,.289-2.758A22.74,22.74,0,0,0,88.662,78.6a39.594,39.594,0,0,1-6.911.258c-4.246,0-8.491.014-12.737-.007C68.979,73.227,69.034,67.6,68.983,61.968Z" transform="translate(69.406 59.573)" fill="#7f590e"/>
          <path id="Path_66-2" data-name="Path 66" d="M68.986,80.522c7.7,0,15.392.024,23.084-.01q-.036,11.523,0,23.046H91.2A24.165,24.165,0,0,1,69.024,81.424C69.014,81.2,69,80.75,68.986,80.522Z" transform="translate(69.409 81.006)" fill="#7f590e"/>
        </g>
        <g id="_f4ab1bff-2" data-name="#f4ab1bff">
          <path id="Path_67-2" data-name="Path 67" d="M34.529,0h44.66A27.728,27.728,0,0,0,69.031,3.547,23.961,23.961,0,0,0,57.613,24.675c-.055,7.159-.014,14.314-.031,21.473A24.161,24.161,0,0,0,38.165,57.394c-1.973,2.982-2.889,6.477-3.647,9.927-.038-7.08-.007-14.159-.017-21.235.01-7.668-.017-15.333.014-23C34.549,15.388,34.525,7.7,34.529,0Z" transform="translate(34.71)" fill="#f4ab1b"/>
          <path id="Path_68-2" data-name="Path 68" d="M69.017,0H91.981c-.017,7.655.021,15.306-.014,22.96-7.651.072-15.3-.045-22.95.062,0-.224-.01-.668-.014-.892C69.028,14.755,69.01,7.376,69.017,0Z" transform="translate(69.426)" fill="#f4ab1b"/>
          <path id="Path_69-2" data-name="Path 69" d="M23.029.779c.372,1.346.64,2.72.978,4.08a23.884,23.884,0,0,0,7.517,11.707,24.7,24.7,0,0,0,14.586,5.74c-.11,7.679-.069,15.361-.028,23.04q8.29.031,16.576,0a24.239,24.239,0,0,1,2.992.286,23.118,23.118,0,0,0-15.275,9.49,23.669,23.669,0,0,0-4.218,11.752A28.314,28.314,0,0,0,42.467,56.61a24.175,24.175,0,0,0-19.39-11.253C15.385,45.285,7.692,45.35,0,45.329V22.414C1.4,22.128,2.83,22,4.232,21.7A23.876,23.876,0,0,0,18.549,12.3,26.147,26.147,0,0,0,23.029.779Z" transform="translate(0 0.784)" fill="#f4ab1b"/>
          <path id="Path_70-2" data-name="Path 70" d="M100.772,7.893A34.039,34.039,0,0,0,102.783.769V22.3c-7.166-.007-14.335.017-21.5-.014a32.814,32.814,0,0,0,7.066-1.99A23.9,23.9,0,0,0,100.772,7.893Z" transform="translate(81.781 0.774)" fill="#f4ab1b"/>
          <path id="Path_71-2" data-name="Path 71" d="M57.541,11.5c7.062.083,14.132-.186,21.19.158a22.315,22.315,0,0,0-11.828,4.4,23.169,23.169,0,0,0-9.087,15,14.931,14.931,0,0,1-.365-3.361C57.548,22.3,57.379,16.9,57.541,11.5Z" transform="translate(57.798 11.547)" fill="#f4ab1b"/>
          <path id="Path_72-2" data-name="Path 72" d="M46.786,23.014c6.525-.031,13.05,0,19.575-.028.627.021,1.253.028,1.884.031q11.559-.01,23.119,0c5.5-.007,11,.017,16.5-.014a22.6,22.6,0,0,1,3,.286,23.142,23.142,0,0,0-19.538,22.8c0,.541.01,1.085.034,1.625-.055,7.145-.034,14.286-.034,21.428,7.052,0,14.1.017,21.156-.014.64.017,1.284.024,1.932.034q.005,11.539,0,23.084v23.091c-1.14-.131-2.279-.255-3.426-.286A22.74,22.74,0,0,1,91.6,95.655a27.863,27.863,0,0,0-.327-3.426c-7.665-.034-15.33.045-22.995-.038a23.151,23.151,0,0,1,11-19.627,27,27,0,0,1,9.132-3.326A83.608,83.608,0,0,0,80,69.065c-3.891.028-7.779-.069-11.666.065a23.757,23.757,0,0,0-5.182-14.462,23.163,23.163,0,0,0-14.393-8.316c.761-.09,1.515-.213,2.283-.258,10-.1,19.992.131,29.988.079a69.2,69.2,0,0,0,7.369-.165,26.484,26.484,0,0,1-9.765-3.746A23.378,23.378,0,0,1,68.4,25.7c-.32,6.236.065,12.489-.217,18.728a29.7,29.7,0,0,0-1.608-6.26A23.868,23.868,0,0,0,53.866,25.028,34.282,34.282,0,0,0,46.786,23.014Z" transform="translate(47.073 23.127)" fill="#f4ab1b"/>
          <path id="Path_73-2" data-name="Path 73" d="M81.29,23.049c7.159-.1,14.324-.017,21.487-.045V44.635a25.787,25.787,0,0,0-6.191-13.718A25.035,25.035,0,0,0,81.29,23.049Z" transform="translate(81.788 23.137)" fill="#f4ab1b"/>
          <path id="Path_74-2" data-name="Path 74" d="M11.505,34.5c7.689.017,15.381-.017,23.07.017s15.375.021,23.06,0c7.692-.034,15.388-.017,23.081-.01v23.07A23.191,23.191,0,0,1,61.052,46.56a26.677,26.677,0,0,1-3.319-9.115,78.147,78.147,0,0,0-.176,8.085c.017,4-.048,8.013.052,12.017q-11.528-.01-23.057,0c0,7.717-.034,15.43.021,23.146.069,7.035-.052,14.07.062,21.1a10.55,10.55,0,0,1-.152,1.832,10.26,10.26,0,0,1-3.013.186c-6.653-.055-13.305.017-19.958-.031q-.015-11.544,0-23.091c.031-2.882.083-5.768-.021-8.65q.17-7.247.031-14.5c-.007-.22-.024-.661-.031-.882C11.516,49.274,11.5,41.884,11.505,34.5Z" transform="translate(11.565 34.71)" fill="#f4ab1b"/>
          <path id="Path_75-2" data-name="Path 75" d="M80.534,34.508c7.145.059,14.293-.124,21.435.1a30.459,30.459,0,0,0-6.053,1.525,23.916,23.916,0,0,0-13.25,12.551,33.071,33.071,0,0,0-2.042,6.949c-.306-2.782-.1-5.585-.155-8.378C80.5,43,80.382,38.754,80.534,34.508Z" transform="translate(80.943 34.704)" fill="#f4ab1b"/>
          <path id="Path_76-2" data-name="Path 76" d="M45.267,46.771a35.291,35.291,0,0,0,2,7.09A23.966,23.966,0,0,0,59.7,66.291a33.9,33.9,0,0,0,7.09,1.994c-6.866.024-13.729,0-20.595.017l-.892-.014c-.651,0-1.3,0-1.952.024-6.518-.007-13.037.01-19.555-.024A23.8,23.8,0,0,0,36.5,63.323,23.423,23.423,0,0,0,45.267,46.771Z" transform="translate(23.937 47.057)" fill="#f4ab1b"/>
          <path id="Path_77-2" data-name="Path 77" d="M100.779,53.881a35.255,35.255,0,0,0,2-7.111V68.3c-7.166-.007-14.335.017-21.5-.014a32.408,32.408,0,0,0,7.331-2.1A23.968,23.968,0,0,0,100.779,53.881Z" transform="translate(81.781 47.057)" fill="#f4ab1b"/>
          <path id="Path_78-2" data-name="Path 78" d="M96.217,71.776a23.805,23.805,0,0,0,5.589-13.5V79.8c-5.506.007-11.015-.017-16.521.014a27.058,27.058,0,0,1-3.03-.272A23.267,23.267,0,0,0,96.217,71.776Z" transform="translate(82.758 58.628)" fill="#f4ab1b"/>
          <path id="Path_79-2" data-name="Path 79" d="M23.224,69.258a3.5,3.5,0,0,1,1.856-.31c7.007.076,14.014-.028,21.022.055-.038,7.713.017,15.426-.028,23.139a23.254,23.254,0,0,1-17.289-7.851,23.824,23.824,0,0,1-5.757-13.508C23.014,70.271,22.846,69.682,23.224,69.258Z" transform="translate(23.12 69.371)" fill="#f4ab1b"/>
          <path id="Path_80-2" data-name="Path 80" d="M80.515,69.086c.634-.048,1.267-.1,1.9-.134q2.1.424,4.18.937a23,23,0,0,1,14.982,12.833,34.973,34.973,0,0,1,2,6.825v25.643H80.5q-.021-11.523,0-23.046C80.532,84.457,80.508,76.772,80.515,69.086Z" transform="translate(80.979 69.375)" fill="#f4ab1b"/>
          <path id="Path_81-2" data-name="Path 81" d="M68.064,69.479a30.26,30.26,0,0,1,.558,3.04,23.951,23.951,0,0,0,10.1,14.989A25.034,25.034,0,0,0,89.5,91.478c-7.131.258-14.276.031-21.414.117-7.038.059-14.076-.093-21.111.09a5.7,5.7,0,0,1,1.849-.606,23.8,23.8,0,0,0,15.2-10.113A25.339,25.339,0,0,0,68.064,69.479Z" transform="translate(47.258 69.905)" fill="#f4ab1b"/>
          <path id="Path_82-2" data-name="Path 82" d="M57.466,69.826c.244,4.146.062,8.305.117,12.455.01,10.678.182,21.356.021,32.03H34.488a23.329,23.329,0,0,1,6.945-16.466,23.732,23.732,0,0,1,13.453-6.5c-6.239-.3-12.493.1-18.732-.22a24.663,24.663,0,0,0,13.161-5.764A24.4,24.4,0,0,0,57.466,69.826Z" transform="translate(34.699 70.254)" fill="#f4ab1b"/>
          <path id="Path_83-2" data-name="Path 83" d="M13.508,86.589A23.066,23.066,0,0,0,22.96,70.1c.048.234.148.706.2.94-.158,6.649-.031,13.3-.069,19.951,7.031,0,14.066.017,21.1-.024q.935.062,1.87.134c.017,7.648-.052,15.3.034,22.943H0V91A23.442,23.442,0,0,0,13.508,86.589Z" transform="translate(0 70.525)" fill="#f4ab1b"/>
        </g>
        <g id="_432f07ff-2" data-name="#432f07ff">
          <path id="Path_84-2" data-name="Path 84" d="M57.938,0H80.151c-.007,7.376.01,14.755-.014,22.13A24.2,24.2,0,0,0,57.938,0Z" transform="translate(58.293)" fill="#432f07"/>
          <path id="Path_85-2" data-name="Path 85" d="M46.036,12.3a23,23,0,0,0,7.92,15.9,23.428,23.428,0,0,0,13.191,5.533c-6.525.028-13.05,0-19.575.028-.523-.014-1.047-.01-1.567.007C46.022,26.614,45.981,19.459,46.036,12.3Z" transform="translate(46.287 12.375)" fill="#432f07"/>
          <path id="Path_86-2" data-name="Path 86" d="M1.09,34.606c6.956-.234,13.925-.038,20.884-.1,0,7.386.01,14.775-.01,22.165a24.248,24.248,0,0,0-7.517-15.667A24.928,24.928,0,0,0,1.09,34.606Z" transform="translate(1.097 34.699)" fill="#432f07"/>
          <path id="Path_87-2" data-name="Path 87" d="M69.028,35.31A23.09,23.09,0,0,0,90.149,56.724c-7.052.031-14.1.014-21.156.014C68.993,49.6,68.973,42.455,69.028,35.31Z" transform="translate(69.412 35.527)" fill="#432f07"/>
          <path id="Path_88-2" data-name="Path 88" d="M0,46.788A23.338,23.338,0,0,0,4.342,58.764a23,23,0,0,0,15.168,9.27c-1,.093-1.987.217-2.985.22-5.506-.034-11.015-.01-16.525-.017Z" transform="translate(0 47.075)" fill="#432f07"/>
          <path id="Path_89-2" data-name="Path 89" d="M23,57.555c.53-.021,1.061-.038,1.591-.059,6.518.034,13.037.017,19.555.024a23.564,23.564,0,0,0-12.207,4.755,22.994,22.994,0,0,0-8.877,16.38C22.947,71.625,23.067,64.59,23,57.555Z" transform="translate(23.139 57.849)" fill="#432f07"/>
          <path id="Path_90-2" data-name="Path 90" d="M34.957,57.512c6.866-.021,13.729.007,20.595-.017.523.01,1.043.01,1.57.01-.065,6.966.117,13.939-.093,20.9a25.034,25.034,0,0,0-6.4-13.364A24.265,24.265,0,0,0,34.957,57.512Z" transform="translate(35.171 57.847)" fill="#432f07"/>
          <path id="Path_91-2" data-name="Path 91" d="M11.584,70.564l.124.517A23.952,23.952,0,0,0,16.27,81.562,23.37,23.37,0,0,0,32.613,90.49c-7.031.041-14.066.024-21.1.024C11.553,83.865,11.426,77.213,11.584,70.564Z" transform="translate(11.573 70.996)" fill="#432f07"/>
          <path id="Path_92-2" data-name="Path 92" d="M46.839,80.6c.065,0,.2-.007.262-.007,7.035-.183,14.073-.031,21.111-.09-.079,7.018.148,14.039-.131,21.053C67.551,90.574,57.817,81.015,46.839,80.6Z" transform="translate(47.126 80.995)" fill="#432f07"/>
          <path id="Path_93-2" data-name="Path 93" d="M69.015,80.967A24.165,24.165,0,0,0,91.191,103.1H69C69.005,95.722,68.978,88.343,69.015,80.967Z" transform="translate(69.418 81.463)" fill="#432f07"/>
        </g>
      </g>
    </g>
    <g id="Mask_Group_1" data-name="Mask Group 1" transform="translate(0 -326)" clip-path="url(#clip-path-2)">
      <g id="Path_98" data-name="Path 98" transform="translate(56 452)" fill="none" opacity="0.8">
        <path d="M99.409,0A99.409,99.409,0,1,1,0,99.409,99.409,99.409,0,0,1,99.409,0Z" stroke="none"/>
        <path d="M 99.40896606445313 79.99996948242188 C 88.70685577392578 79.99996948242188 79.99996948242188 88.70685577392578 79.99996948242188 99.40896606445313 C 79.99996948242188 110.1110763549805 88.70685577392578 118.8179626464844 99.40896606445313 118.8179626464844 C 110.1110763549805 118.8179626464844 118.8179626464844 110.1110763549805 118.8179626464844 99.40896606445313 C 118.8179626464844 88.70685577392578 110.1110763549805 79.99996948242188 99.40896606445313 79.99996948242188 M 99.40896606445313 -3.0517578125e-05 C 154.3109741210938 -3.0517578125e-05 198.8179626464844 44.50685119628906 198.8179626464844 99.40896606445313 C 198.8179626464844 154.3109741210938 154.3109741210938 198.8179626464844 99.40896606445313 198.8179626464844 C 44.50685119628906 198.8179626464844 -3.0517578125e-05 154.3109741210938 -3.0517578125e-05 99.40896606445313 C -3.0517578125e-05 44.50685119628906 44.50685119628906 -3.0517578125e-05 99.40896606445313 -3.0517578125e-05 Z" stroke="none" fill="#679966"/>
      </g>
    </g>
    <g id="Mask_Group_2" data-name="Mask Group 2" transform="translate(0 -326)" clip-path="url(#clip-path-2)">
      <g id="Path_99" data-name="Path 99" transform="translate(244.818 379.818)" fill="none" opacity="0.8">
        <path d="M66.591,0A66.591,66.591,0,1,1,0,66.591,66.591,66.591,0,0,1,66.591,0Z" stroke="none"/>
        <path d="M 66.59103393554688 49.99996948242188 C 57.44270324707031 49.99996948242188 49.99996948242188 57.44270324707031 49.99996948242188 66.59103393554688 C 49.99996948242188 75.73936462402344 57.44270324707031 83.18203735351563 66.59103393554688 83.18203735351563 C 75.73936462402344 83.18203735351563 83.18203735351563 75.73936462402344 83.18203735351563 66.59103393554688 C 83.18203735351563 57.44270324707031 75.73936462402344 49.99996948242188 66.59103393554688 49.99996948242188 M 66.59103393554688 -3.0517578125e-05 C 103.3682327270508 -3.0517578125e-05 133.1820373535156 29.81383514404297 133.1820373535156 66.59103393554688 C 133.1820373535156 103.3682327270508 103.3682327270508 133.1820373535156 66.59103393554688 133.1820373535156 C 29.81383514404297 133.1820373535156 -3.0517578125e-05 103.3682327270508 -3.0517578125e-05 66.59103393554688 C -3.0517578125e-05 29.81383514404297 29.81383514404297 -3.0517578125e-05 66.59103393554688 -3.0517578125e-05 Z" stroke="none" fill="#679966"/>
      </g>
    </g>
    <text id="Protection_Towards_Bacteria_Viruses" data-name="Protection
Towards
Bacteria &amp;
Viruses" transform="translate(88 152)" fill="#fffef1" font-size="12" font-family="Omnes-Regular, Omnes"><tspan x="-26.985" y="0">Protection</tspan><tspan x="-21.507" y="12">Towards</tspan><tspan x="-26.215" y="24">Bacteria &amp;</tspan><tspan x="-18.776" y="36">Viruses</tspan></text>
    <text id="Safe_to_Use" data-name="Safe
to Use" transform="translate(153 164)" fill="#fffef1" font-size="12" font-family="Omnes-Regular, Omnes"><tspan x="-11.314" y="0">Safe</tspan><tspan x="-16.172" y="12">to Use</tspan></text>
    <text id="Not_Irritant_to_The_Skin" data-name="Not Irritant
to The Skin" transform="translate(220 164)" fill="#fffef1" font-size="12" font-family="Omnes-Regular, Omnes"><tspan x="-27.63" y="0">Not Irritant</tspan><tspan x="-27.835" y="12">to The Skin</tspan></text>
    <text id="_" data-name="+" transform="translate(125 172)" fill="#fffef1" font-size="20" font-family="Omnes-Medium, Omnes" font-weight="500"><tspan x="-5.376" y="0">+</tspan></text>
    <text id="_2" data-name="+" transform="translate(260 172)" fill="#fffef1" font-size="20" font-family="Omnes-Medium, Omnes" font-weight="500"><tspan x="-5.376" y="0">+</tspan></text>
    <text id="_3" data-name="+" transform="translate(177 172)" fill="#fffef1" font-size="20" font-family="Omnes-Medium, Omnes" font-weight="500"><tspan x="-5.376" y="0">+</tspan></text>
    <text id="Has_Strong_Odor_Eliminating_Properties" data-name="Has Strong
Odor Eliminating
Properties" transform="translate(275 140)" fill="#fffef1" font-size="12" font-family="Omnes-Regular, Omnes"><tspan x="11.379" y="11">Has Strong</tspan><tspan x="25.758" y="23">Odor </tspan><tspan x="10.992" y="35">Eliminating</tspan><tspan x="12.337" y="47">Properties</tspan></text>
  </g>
</svg>
