<svg width="450" height="100" xmlns="http://www.w3.org/2000/svg">

 <g>
  <title>background</title>
  <rect fill="none" id="canvas_background" height="102" width="452" y="-1" x="-1"/>
 </g>
 <g>
  <title>Layer 1</title>
  <path id="svg_1" fill-rule="evenodd" fill="#41AC47" d="m241.135,68.998c-4.453,4.518 -9.782,6.794 -15.957,6.794c-4.993,0 -9.239,-1.021 -13.571,-3.537l0,-10.362c3.486,2.362 7.861,4.613 12.182,4.613c9.006,0 14.371,-6.199 14.371,-14.985c0,-8.795 -5.55,-15.179 -14.558,-15.179c-4.029,0 -7.288,1.447 -9.838,4.346c-2.733,3.144 -4.144,7.635 -4.144,13.572l0,40.921l-0.679,0c-4.963,0 -8.989,-4.025 -8.989,-8.988l0,-33.467c0,-14.201 8.684,-25.667 23.607,-25.667c7.364,0 13.349,2.518 17.886,7.579c4.266,4.727 6.382,10.723 6.382,17.932c0,6.418 -2.229,11.904 -6.692,16.428zm104.671,-0.344c-4.438,4.762 -10.147,7.138 -17.074,7.138c-7.304,0 -13.261,-2.522 -17.792,-7.582c-4.262,-4.786 -6.382,-10.784 -6.382,-17.932c0,-12.65 9.768,-23.219 22.611,-23.219c4.959,0 9.262,1.042 13.611,3.429l0,10.467c-3.489,-2.362 -7.865,-4.613 -12.182,-4.613c-9.006,0 -14.371,6.198 -14.371,14.986c0,8.675 5.675,15.178 14.555,15.178c4.02,0 7.334,-1.51 9.983,-4.543c2.631,-3.018 4,-7.449 4,-13.404l0,-32.57c0,-4.963 4.024,-8.989 8.992,-8.989l0.675,0l0,43.086c0,7.59 -2.194,13.8 -6.626,18.568zm27.298,-46.196c-1.016,1.136 -2.47,1.66 -4.247,1.66c-3.316,0 -5.689,-2.45 -5.689,-5.74c0,-3.371 2.331,-5.646 5.689,-5.646c3.237,0 5.695,2.398 5.695,5.646c0,1.606 -0.469,2.982 -1.448,4.08zm49.118,26.101c0,-3.81 -1.441,-6.826 -4.342,-9.114c-2.609,-2.056 -5.872,-3.103 -9.832,-3.103c-8.749,0 -14.364,6.839 -14.364,15.271c0,8.121 5.949,14.893 14.275,14.893c5.784,0 8.882,-3.383 12.183,-7.592l0,12.144c-1.684,1.259 -3.618,2.632 -5.594,3.438c-2.083,0.871 -4.567,1.296 -7.442,1.296c-13.914,0 -23.091,-11.526 -23.091,-24.845c0,-6.839 2.124,-12.491 6.4,-16.901c4.54,-4.67 10.489,-6.987 17.776,-6.987c13.816,0 23.7,7.931 23.7,22.263l0,25.514l-0.68,0c-4.964,0 -8.989,-4.024 -8.989,-8.988l0,-17.289zm-132.334,-2.736c-1.225,-3.78 -2.754,-5.638 -6.28,-7.604c-8.374,-4.683 -16.618,-0.699 -20.455,7.566l26.735,0.038zm-7.376,29.826c-6.176,1.31 -12.235,0.3 -18.145,-3.001c-5.765,-3.223 -9.631,-8.014 -11.564,-14.339c-3.912,-12.798 4.105,-27.06 16.995,-30.516c6.39,-1.711 12.52,-0.935 18.341,2.32c9.671,5.403 13.194,13.764 12.58,24.538l-38.948,-0.081c0.572,4.395 3.298,7.834 7.125,9.972c3.881,2.17 7.452,2.688 10.766,1.66c3.674,-1.155 6.656,-4.154 9.083,-6.948l7.939,5.783c-3.24,5.793 -7.649,9.222 -14.172,10.612zm81.514,-47.636l9.665,0l0,46.823l-0.677,0c-4.961,0 -8.988,-4.024 -8.988,-8.988l0,-37.835zm-327.881,46.823c-9.451,0 -14.145,-6.432 -14.145,-15.412l0,-34.075c0,-4.964 4.023,-8.988 8.99,-8.988l0.677,0l0,11.652l16.333,0l0,9.286l-16.333,0l0,23.199c0,3.946 1.762,5.055 5.53,5.055l10.803,0l0,9.283l-11.855,0zm56.146,-5.92c-4.78,4.581 -10.519,6.876 -17.187,6.876c-6.606,0 -12.316,-2.297 -17.088,-6.876c-4.793,-4.595 -7.184,-10.443 -7.184,-17.491c0,-13.751 10.504,-24.366 24.272,-24.366c6.609,0 12.331,2.314 17.137,6.922c4.823,4.625 7.23,10.456 7.23,17.444c0,7.048 -2.391,12.896 -7.18,17.491zm45.193,-29.637c-1.418,2.378 -2.516,4.085 -3.29,5.115c-0.854,1.119 -1.695,2.015 -2.528,2.632c6.718,2.173 9.22,6.827 9.22,13.761l0,14.049l-0.68,0c-4.965,0 -8.99,-4.024 -8.99,-8.988l0,-4.109c0,-4.487 -2.01,-7.536 -6.769,-7.536l-8.78,0l0,20.633l-0.677,0c-4.965,0 -8.99,-4.024 -8.99,-8.988l0,-49.859c0,-4.963 4.025,-8.989 8.99,-8.989l0.677,0l0,37.822l2.857,0c3.139,0 5.205,-1.071 6.387,-3.103l8.122,-13.704l11.016,-0.01l-6.565,11.274zm49.903,29.637c-4.776,4.581 -10.517,6.876 -17.186,6.876c-6.604,0 -12.312,-2.297 -17.09,-6.876c-4.79,-4.595 -7.178,-10.443 -7.178,-17.491c0,-13.751 10.499,-24.366 24.268,-24.366c6.611,0 12.334,2.314 17.139,6.922c4.821,4.625 7.23,10.456 7.23,17.444c0,7.048 -2.391,12.896 -7.183,17.491zm-6.977,-28.386c-2.664,-2.79 -6.052,-4.188 -10.209,-4.188c-8.896,0 -14.221,6.487 -14.221,15.083c0,8.477 5.453,15.081 14.221,15.081c8.775,0 14.22,-6.604 14.22,-15.081c0,-4.501 -1.349,-8.112 -4.011,-10.895zm-95.1,0c-2.664,-2.79 -6.048,-4.188 -10.206,-4.188c-8.898,0 -14.221,6.487 -14.221,15.083c0,8.477 5.452,15.081 14.221,15.081c8.771,0 14.223,-6.604 14.223,-15.081c0,-4.501 -1.351,-8.112 -4.017,-10.895z"/>
 </g>
</svg>